<?xml version="1.0" encoding="UTF-8"?>
<svg width="13px" height="15px" viewBox="0 0 13 15" version="1.1" xmlns="http://www.w3.org/2000/svg" xmlns:xlink="http://www.w3.org/1999/xlink">
    <!-- Generator: Sketch 55.2 (78181) - https://sketchapp.com -->
    <title>Group 4</title>
    <desc>Created with Sketch.</desc>
    <g id="Page-1" stroke="none" stroke-width="1" fill="none" fill-rule="evenodd">
        <g id="rt_current_update_desktop" transform="translate(-66.000000, -2275.000000)" fill="#FFFFFF">
            <g id="Group-3" transform="translate(60.000000, 2270.000000)">
                <g id="Group-4" transform="translate(6.000000, 4.700000)">
                    <path d="M6.82101508,1.25233157e-13 C7.16958041,1.25169127e-13 7.45214844,0.282568028 7.45214844,0.631133355 L7.45214844,10.5242377 C7.45214844,10.8728031 7.16958041,11.1553711 6.82101508,11.1553711 C6.47244976,11.1553711 6.18988173,10.8728031 6.18988173,10.5242377 L6.18988173,0.631133355 C6.18988173,0.282568028 6.47244976,1.25297188e-13 6.82101508,1.25233157e-13 Z" id="Rectangle" transform="translate(6.821015, 5.577686) rotate(-270.000000) translate(-6.821015, -5.577686) "></path>
                    <path d="M6.17898492,4.53730469 C6.52755024,4.53730469 6.81011827,4.81987272 6.81011827,5.16843804 L6.81011827,15.0615424 C6.81011827,15.4101078 6.52755024,15.6926758 6.17898492,15.6926758 C5.83041959,15.6926758 5.54785156,15.4101078 5.54785156,15.0615424 L5.54785156,5.16843804 C5.54785156,4.81987272 5.83041959,4.53730469 6.17898492,4.53730469 Z" id="Rectangle" transform="translate(6.178985, 10.114990) rotate(-270.000000) translate(-6.178985, -10.114990) "></path>
                    <path d="M4.09780002,0.866666667 C4.44636535,0.866666667 4.72893338,1.14923469 4.72893338,1.49780002 L4.72893338,14.5355333 C4.72893338,14.8840986 4.44636535,15.1666667 4.09780002,15.1666667 C3.74923469,15.1666667 3.46666667,14.8840986 3.46666667,14.5355333 L3.46666667,1.49780002 C3.46666667,1.14923469 3.74923469,0.866666667 4.09780002,0.866666667 Z" id="Rectangle" transform="translate(4.097800, 8.016667) rotate(9.000000) translate(-4.097800, -8.016667) "></path>
                    <path d="M8.69159885,0.866666667 C9.04016418,0.866666667 9.3227322,1.14923469 9.3227322,1.49780002 L9.3227322,14.5355333 C9.3227322,14.8840986 9.04016418,15.1666667 8.69159885,15.1666667 C8.34303352,15.1666667 8.06046549,14.8840986 8.06046549,14.5355333 L8.06046549,1.49780002 C8.06046549,1.14923469 8.34303352,0.866666667 8.69159885,0.866666667 Z" id="Rectangle" transform="translate(8.691599, 8.016667) rotate(9.000000) translate(-8.691599, -8.016667) "></path>
                </g>
            </g>
        </g>
    </g>
</svg>