<?xml version="1.0" encoding="UTF-8"?>
<svg width="19px" height="16px" viewBox="0 0 19 16" version="1.1" xmlns="http://www.w3.org/2000/svg" xmlns:xlink="http://www.w3.org/1999/xlink">
    <!-- Generator: Sketch 52 (66869) - http://www.bohemiancoding.com/sketch -->
    <title>Group</title>
    <desc>Created with Sketch.</desc>
    <g id="shop" stroke="none" stroke-width="1" fill="none" fill-rule="evenodd" opacity="0.75999999">
        <g id="rt-shop-desktop-header" transform="translate(-1011.000000, -5.000000)" fill="#000000">
            <g id="Group" transform="translate(1011.500000, 5.166992)">
                <polygon id="Path" points="3.31263158 1.57894737 0 1.57894737 0 1.77635684e-15 4.41157895 1.77635684e-15 5.73552632 3.57315789 4.25447368 4.12184211"></polygon>
                <path d="M5.87368421,3.94736842 L7.63263158,8.65973684 L14.4907895,7.97763158 L16.1123684,3.94736842 L5.87368421,3.94736842 Z M4.73684211,2.36842105 L17.2815789,2.36842105 C17.543811,2.36837682 17.7889507,2.49854406 17.9357956,2.7158048 C18.0826404,2.93306554 18.1120231,3.20906133 18.0142105,3.45236842 L15.7768421,9.01026316 C15.6671427,9.28304645 15.414945,9.47227074 15.1223684,9.50131579 L7.18342105,10.2907895 C6.82681405,10.3263666 6.49097996,10.1172807 6.36552632,9.78157895 L3.99710526,3.43421053 C3.90652572,3.19178095 3.94051745,2.92035064 4.088082,2.7077443 C4.23564655,2.49513796 4.47804344,2.36835627 4.73684211,2.36842105 Z" id="Shape"></path>
                <circle id="Oval" cx="5.52631579" cy="13.4210526" r="1.57894737"></circle>
                <circle id="Oval" cx="13.4210526" cy="13.4210526" r="1.57894737"></circle>
            </g>
        </g>
    </g>
</svg>