<?xml version="1.0" encoding="utf-8"?>
<!-- Generator: Adobe Illustrator 21.1.0, SVG Export Plug-In . SVG Version: 6.00 Build 0)  -->
<svg version="1.1" id="Layer_1" xmlns="http://www.w3.org/2000/svg" xmlns:xlink="http://www.w3.org/1999/xlink" x="0px" y="0px"
	 viewBox="0 0 50 50" style="enable-background:new 0 0 50 50;" xml:space="preserve">
<style type="text/css">
	.st0{fill:#FFFFFF;}
</style>
<g>
	<path class="st0" d="M13.1,15.4h-1.6v11.2h0v11.7c0,0.9,0.7,1.6,1.6,1.6h3.5v7.2c0,1.6,1.3,2.9,2.9,2.9c1.6,0,2.9-1.3,2.9-2.9v-7.2
		h5.4v7.2c0,1.6,1.3,2.9,2.9,2.9c1.6,0,2.9-1.3,2.9-2.9v-7.2h3.5c0.9,0,1.6-0.7,1.6-1.6V26.6h0V15.4h-1.6H13.1z"/>
	<path class="st0" d="M42.9,14.5c-1.6,0-2.9,1.3-2.9,2.9v13c0,1.6,1.3,2.9,2.9,2.9c1.6,0,2.9-1.3,2.9-2.9v-13
		C45.8,15.8,44.5,14.5,42.9,14.5z"/>
	<path class="st0" d="M7.1,14.5c-1.6,0-2.9,1.3-2.9,2.9v13c0,1.6,1.3,2.9,2.9,2.9c1.6,0,2.9-1.3,2.9-2.9v-13
		C10,15.8,8.7,14.5,7.1,14.5z"/>
	<path class="st0" d="M31.5,3.7l2.3-3.3c0-0.1,0-0.2-0.2-0.3C33.6,0,33.4,0,33.4,0L31,3.4c-1.6-0.6-3.6-1-6-1c-2.4,0-4.4,0.4-6,1
		L16.6,0c0-0.1-0.2,0-0.3,0c-0.1,0.1-0.2,0.2-0.2,0.3l2.3,3.2c-6.7,3-6.9,10.2-6.9,10.2h26.9C38.4,13.8,38.2,6.6,31.5,3.7z
		 M19.1,9.6c-0.9,0-1.6-0.7-1.6-1.6s0.7-1.6,1.6-1.6c0.9,0,1.6,0.7,1.6,1.6S20,9.6,19.1,9.6z M30.9,9.6c-0.9,0-1.6-0.7-1.6-1.6
		s0.7-1.6,1.6-1.6c0.9,0,1.6,0.7,1.6,1.6S31.8,9.6,30.9,9.6z"/>
</g>
</svg>
