<?xml version="1.0" encoding="utf-8"?>
<!-- Generator: Adobe Illustrator 21.1.0, SVG Export Plug-In . SVG Version: 6.00 Build 0)  -->
<svg version="1.1" id="Layer_1" xmlns="http://www.w3.org/2000/svg" xmlns:xlink="http://www.w3.org/1999/xlink" x="0px" y="0px"
	 viewBox="0 0 50 50" style="enable-background:new 0 0 50 50;" xml:space="preserve">
<style type="text/css">
	.st0{fill-rule:evenodd;clip-rule:evenodd;fill:#FFFFFF;}
</style>
<path class="st0" d="M46.5,36.7c-1.2,2.6-1.7,3.8-3.2,6.1C41.1,46,38.2,50,34.5,50c-3.3,0-4.1-2.1-8.6-2.1c-4.4,0-5.4,2.1-8.6,2.1
	c-3.7,0-6.5-3.6-8.6-6.9c-5.9-9-6.5-19.5-2.9-25.1c2.6-4,6.7-6.3,10.5-6.3c3.9,0,6.4,2.1,9.6,2.1c3.1,0,5-2.1,9.6-2.1
	c3.4,0,7,1.9,9.6,5.1C36.6,21.4,38,33.5,46.5,36.7L46.5,36.7z M32,8.1C33.6,6,34.9,3,34.4,0c-2.7,0.2-5.8,1.9-7.6,4.1
	c-1.7,2-3,5-2.5,7.9C27.2,12.1,30.2,10.4,32,8.1L32,8.1z"/>
</svg>
