<?xml version="1.0" encoding="utf-8"?>
<!-- Generator: Adobe Illustrator 21.1.0, SVG Export Plug-In . SVG Version: 6.00 Build 0)  -->
<svg version="1.1" id="Layer_1" xmlns="http://www.w3.org/2000/svg" xmlns:xlink="http://www.w3.org/1999/xlink" x="0px" y="0px"
	 viewBox="0 0 50 50" style="enable-background:new 0 0 50 50;" xml:space="preserve">
<style type="text/css">
	.st0{fill:#FFFFFF;}
</style>
<path class="st0" d="M22.9,3.9c9-1.4,18-2.7,27-3.9c0,7.9,0,15.8,0,23.7c-9,0-18,0.2-27,0.2C22.9,17.2,22.9,10.6,22.9,3.9L22.9,3.9z
	 M0.1,7.1V24c6.8,0,13.6-0.1,20.4-0.1c0-6.6,0-13.1,0-19.6C13.6,5.2,6.8,6.1,0.1,7.1L0.1,7.1z M0.1,43.1c6.8,0.9,13.6,1.8,20.4,2.8
	c0-6.6,0-13.1,0-19.7c-6.8,0-13.6-0.1-20.4-0.1V43.1z M22.9,46.2c9,1.2,18,2.5,27,3.8c0-7.9,0-15.8,0-23.6c-9,0-18,0-27.1,0
	C22.9,33,22.9,39.6,22.9,46.2z"/>
</svg>
