<?xml version="1.0" encoding="utf-8"?>
<!-- Svg Vector Icons : http://www.onlinewebfonts.com/icon -->
<!DOCTYPE svg PUBLIC "-//W3C//DTD SVG 1.1//EN" "http://www.w3.org/Graphics/SVG/1.1/DTD/svg11.dtd">
<svg version="1.1" xmlns="http://www.w3.org/2000/svg" xmlns:xlink="http://www.w3.org/1999/xlink" x="0px" y="0px" viewBox="0 0 1000 1000" enable-background="new 0 0 1000 1000" xml:space="preserve" fill="#5e5c5b">
<metadata> Svg Vector Icons : http://www.onlinewebfonts.com/icon </metadata>
<g><g transform="translate(0.000000,511.000000) scale(0.100000,-0.100000)"><path d="M1307.4,3237.4C661,2502.8,281.2,1685.7,133.5,724.7c-40.3-274.3-46-974.4-7.7-1246.7c128.5-936,483.3-1745.4,1076-2460.8c86.3-103.6,166.9-191.8,182.2-197.6c13.4-5.8,176.5,99.7,362.5,235.9l337.6,245.5l-94,95.9c-510.2,529.4-865,1250.6-1010.8,2052.3c-51.8,289.6-47.9,974.4,7.7,1275.5c107.4,586.9,341.4,1147,665.6,1601.6c63.3,88.2,201.4,257,305,374c103.6,117,186.1,214.8,182.2,218.7c-21.1,15.4-625.3,479.5-642.5,492.9C1481.9,3423.4,1418.6,3365.9,1307.4,3237.4z"/><path d="M8241.1,3187.5c-174.5-132.3-324.2-247.4-333.7-257c-7.7-7.7,63.3-103.6,161.1-214.8c498.7-560.1,820.9-1235.2,953.3-2000.5c46-268.5,46-939.9,0-1208.4c-132.4-767.2-448.8-1428.9-955.2-2002.4c-143.9-163.1-170.7-201.4-149.6-222.5c15.4-13.4,166.9-128.5,337.6-257l310.7-232.1l168.8,195.7c621.4,725,985.9,1521,1131.7,2470.4c46,308.8,46,993.6-1.9,1313.9c-47.9,316.5-163,759.6-270.4,1035.7c-211,546.6-560.1,1108.6-943.7,1519.1l-92.1,99.7L8241.1,3187.5z"/><path d="M6518.7,1889L6185,1637.7l55.6-38.4c28.8-19.2,128.5-111.3,218.7-201.4C7057.7,797.6,7165.1-124.9,6722-850c-94-153.4-356.7-441.2-481.4-527.5l-55.6-38.4l337.6-253.2c186-140,345.2-253.2,354.8-253.2c36.4,0,404.7,406.7,506.4,560.1c195.6,291.5,341.4,648.3,410.5,993.5c46,226.3,46,734.6,0,962.9c-72.9,364.4-241.7,755.7-454.6,1054.9c-124.7,172.6-429.6,496.8-468,492.9C6860.1,2142.2,6700.9,2029,6518.7,1889z"/><path d="M2983.8,1977.2c-554.3-537.1-849.7-1265.9-817.1-2010.1c23-517.9,176.5-974.3,475.7-1409.8c118.9-174.5,412.4-498.7,450.7-498.7c17.3,0,558.1,381.7,694.3,489.1c1.9,1.9-51.8,51.8-122.7,107.4c-178.4,145.8-356.8,376-468,602.3c-306.9,627.2-239.8,1350.3,176.5,1912.3c97.8,132.3,308.8,339.5,402.8,395.1c30.7,17.3,53.7,36.5,51.8,42.2c0,11.5-644.5,504.4-671.3,514C3146.8,2124.9,3068.1,2061.6,2983.8,1977.2z"/><path d="M4733,1309.7c-341.4-74.8-667.5-329.9-822.9-644.5c-107.4-216.7-145.8-397-130.4-621.5c34.5-563.9,425.8-1016.6,976.3-1129.7c184.1-38.4,303.1-38.4,489.1,0c957.1,195.6,1306.2,1379.1,610,2069.6C5563.5,1273.3,5137.7,1396,4733,1309.7z"/></g></g>
</svg>