<?xml version="1.0" encoding="utf-8"?>
<!-- Generator: Adobe Illustrator 16.0.3, SVG Export Plug-In . SVG Version: 6.00 Build 0)  -->
<!DOCTYPE svg PUBLIC "-//W3C//DTD SVG 1.1//EN" "http://www.w3.org/Graphics/SVG/1.1/DTD/svg11.dtd">
<svg version="1.1" id="Layer_1" xmlns="http://www.w3.org/2000/svg" xmlns:xlink="http://www.w3.org/1999/xlink" x="0px" y="0px"
	 width="24px" height="24px" viewBox="0 0 24 24" enable-background="new 0 0 24 24" xml:space="preserve">
<g>
	<rect fill="#F84F0F" width="24" height="24"/>
	<path fill="#FFFFFF" d="M2.476,13.51c-0.04,0-0.073,0.032-0.079,0.078L2.25,14.699l0.146,1.091
		c0.006,0.046,0.039,0.079,0.079,0.079c0.041,0,0.074-0.032,0.08-0.078l0,0v0c0,0,0,0,0,0l0.173-1.092l-0.173-1.111
		C2.551,13.542,2.517,13.51,2.476,13.51z M3.298,12.903c-0.006-0.048-0.041-0.081-0.081-0.081c-0.042,0-0.078,0.035-0.083,0.081
		c0,0-0.198,1.796-0.198,1.796l0.198,1.756c0.005,0.047,0.041,0.082,0.083,0.082c0.04,0,0.075-0.034,0.081-0.081l0.226-1.757
		L3.298,12.903z M6.398,11.247c-0.081,0-0.148,0.065-0.153,0.149l-0.157,3.305l0.157,2.135c0.005,0.084,0.072,0.15,0.153,0.15
		c0.079,0,0.145-0.066,0.149-0.15v0l0.179-2.135l-0.179-3.305C6.543,11.312,6.478,11.247,6.398,11.247z M4.795,12.395
		c-0.063,0-0.113,0.049-0.118,0.115L4.5,14.7l0.177,2.118c0.005,0.065,0.055,0.115,0.118,0.115c0.061,0,0.11-0.05,0.116-0.115
		l0.2-2.118l-0.2-2.19C4.905,12.444,4.855,12.395,4.795,12.395z M8.026,16.985c0.1,0,0.182-0.081,0.187-0.184l0.153-2.1l-0.153-4.4
		c-0.005-0.103-0.086-0.184-0.186-0.184c-0.102,0-0.183,0.081-0.186,0.184l-0.136,4.399l0.136,2.1
		C7.845,16.904,7.926,16.985,8.026,16.985z M11.361,16.995c0.139,0,0.254-0.114,0.255-0.253v0.002v-0.002l0.107-2.039l-0.107-5.082
		c-0.001-0.139-0.116-0.253-0.255-0.253c-0.137,0-0.251,0.113-0.253,0.253l-0.096,5.08c0,0.003,0.096,2.042,0.096,2.042
		C11.11,16.881,11.225,16.995,11.361,16.995z M9.682,16.987c0.119,0,0.216-0.096,0.22-0.219v0.001l0.132-2.067L9.901,10.27
		c-0.004-0.122-0.101-0.218-0.22-0.218c-0.12,0-0.216,0.096-0.22,0.218l-0.115,4.432l0.116,2.067
		C9.466,16.891,9.563,16.987,9.682,16.987z M5.593,16.968c0.07,0,0.127-0.057,0.134-0.132L5.915,14.7l-0.188-2.032
		c-0.006-0.075-0.063-0.132-0.134-0.132c-0.071,0-0.13,0.058-0.135,0.133L5.291,14.7l0.167,2.135
		C5.463,16.911,5.521,16.968,5.593,16.968z M4.001,16.851c0.053,0,0.095-0.041,0.101-0.098L4.313,14.7l-0.212-2.132
		c-0.006-0.057-0.048-0.098-0.101-0.098c-0.052,0-0.095,0.042-0.1,0.098L3.714,14.7l0.188,2.053
		C3.906,16.809,3.948,16.851,4.001,16.851z M10.52,10.196c-0.131,0-0.234,0.104-0.237,0.236l-0.106,4.27l0.106,2.055
		c0.003,0.131,0.105,0.233,0.237,0.233c0.13,0,0.234-0.102,0.236-0.235v0.002l0.117-2.054l-0.117-4.271
		C10.754,10.3,10.649,10.196,10.52,10.196z M7.209,16.989c0.09,0,0.165-0.072,0.168-0.167l0.166-2.121l-0.166-4.061
		c-0.004-0.094-0.078-0.167-0.168-0.167s-0.164,0.073-0.168,0.167l-0.147,4.061l0.147,2.122C7.045,16.917,7.119,16.989,7.209,16.989
		z M9.054,16.789v-0.001l0.142-2.085l-0.142-4.549C9.051,10.041,8.96,9.952,8.851,9.952s-0.199,0.088-0.203,0.201l-0.125,4.548
		l0.126,2.087c0.003,0.112,0.093,0.2,0.202,0.2S9.051,16.901,9.054,16.789L9.054,16.789z M19.79,12.08
		c-0.337,0-0.658,0.068-0.95,0.191c-0.196-2.217-2.056-3.956-4.324-3.956c-0.556,0-1.096,0.109-1.572,0.294
		c-0.187,0.071-0.234,0.146-0.237,0.289v7.807c0.003,0.151,0.12,0.276,0.265,0.292c0.007,0,6.774,0.003,6.819,0.003
		c1.357,0,2.46-1.101,2.46-2.459S21.148,12.08,19.79,12.08z M12.201,8.892c-0.146,0-0.268,0.121-0.271,0.27l-0.11,5.542l0.11,2.012
		c0.003,0.146,0.124,0.267,0.271,0.267c0.149,0,0.271-0.12,0.272-0.27v0.003l0.119-2.012l-0.119-5.543
		C12.472,9.012,12.351,8.892,12.201,8.892z"/>
</g>
</svg>
