<?xml version="1.0" encoding="utf-8"?>
<!-- Generator: Adobe Illustrator 16.0.1, SVG Export Plug-In . SVG Version: 6.00 Build 0)  -->
<!DOCTYPE svg PUBLIC "-//W3C//DTD SVG 1.1//EN" "http://www.w3.org/Graphics/SVG/1.1/DTD/svg11.dtd">
<svg version="1.1" id="Layer_1" xmlns="http://www.w3.org/2000/svg" xmlns:xlink="http://www.w3.org/1999/xlink" x="0px" y="0px"
	 width="24px" height="24px" viewBox="0 0 24 24" enable-background="new 0 0 24 24" xml:space="preserve">
<g>
	<g>
		<rect fill="#BF171D" width="24" height="24"/>
	</g>
	<path id="Triangle_2_" fill="#BF171D" d="M10.346,14.029l4.323-2.189l-4.323-2.206V14.029z"/>
	<g id="Lozenge_4_">
		<g>
			<path fill="#FFFFFF" d="M19.84,8.873c0,0-0.156-1.078-0.636-1.552c-0.608-0.623-1.292-0.626-1.604-0.663
				C15.359,6.5,12.002,6.5,12.002,6.5h-0.006c0,0-3.358,0-5.599,0.158c-0.312,0.036-0.994,0.04-1.602,0.663
				C4.314,7.795,4.158,8.873,4.158,8.873S4,10.139,4,11.404v1.188c0,1.266,0.158,2.531,0.158,2.531s0.156,1.077,0.638,1.552
				c0.607,0.623,1.406,0.604,1.763,0.669C7.84,17.463,12,17.5,12,17.5s3.359-0.005,5.602-0.163c0.312-0.038,0.994-0.04,1.604-0.663
				c0.479-0.475,0.636-1.552,0.636-1.552S20,13.857,20,12.591v-1.188C20,10.139,19.84,8.873,19.84,8.873z M10.348,14.029
				l-0.002-4.396l4.323,2.206L10.348,14.029z"/>
		</g>
	</g>
</g>
</svg>
