<?xml version="1.0" encoding="utf-8"?>
<!-- Generator: Adobe Illustrator 16.0.3, SVG Export Plug-In . SVG Version: 6.00 Build 0)  -->
<!DOCTYPE svg PUBLIC "-//W3C//DTD SVG 1.1//EN" "http://www.w3.org/Graphics/SVG/1.1/DTD/svg11.dtd">
<svg version="1.1" id="Layer_1" xmlns="http://www.w3.org/2000/svg" xmlns:xlink="http://www.w3.org/1999/xlink" x="0px" y="0px"
	 width="24px" height="24px" viewBox="0 0 24 24" enable-background="new 0 0 24 24" xml:space="preserve">
<rect fill="#1724E2" width="24" height="24"/>
<path fill="#FFFFFF" d="M9.711,23c0.023,0-0.01-3.488,0-4.222c0.01-0.676-0.174-1.151-1.616-2.488
	c-0.384-0.563-1.157-1.865-1.058-2.792c0.069-0.651,0.871-1.535,1.092-2.198c-0.034-0.674-0.897-2.636-1.015-3.048
	C6.771,7.04,6.115,4.348,6.106,4.161c0.048-1.56,1.349-1.302,1.604-0.651s0.59,1.901,0.897,3.005C8.841,7.346,9.409,8.36,9.719,9.03
	c0.17,0.368,0.343,0.273,0.483,0.027c0.189-0.332,0.436-0.909,1.203-0.909c0.748,0,1.002,0.826,1.033,1.147
	c0.03,0.321,0.415,0.259,0.484,0.015c0.069-0.243,0.29-0.979,1.047-0.918c0.811,0.065,0.909,0.657,1.027,1.141
	c0.131,0.539,0.459,0.001,0.459,0.001s0.31-0.606,0.57-1.243c0.262-0.636,0.42-1.697,0.881-3.113
	c0.498-1.527,1.649-0.837,1.596,0.192c-0.042,0.772-1.131,5.494-1.237,5.921c-0.106,0.426-0.559,3.654-0.733,4.343
	c-0.14,0.561-0.723,1.535-1.056,2.931L15.456,23H9.711z"/>
</svg>
