<?xml version="1.0" encoding="utf-8"?>
<!-- Generator: Adobe Illustrator 16.0.3, SVG Export Plug-In . SVG Version: 6.00 Build 0)  -->
<!DOCTYPE svg PUBLIC "-//W3C//DTD SVG 1.1//EN" "http://www.w3.org/Graphics/SVG/1.1/DTD/svg11.dtd">
<svg version="1.1" id="Layer_1" xmlns="http://www.w3.org/2000/svg" xmlns:xlink="http://www.w3.org/1999/xlink" x="0px" y="0px"
	 width="24px" height="24px" viewBox="0 0 24 24" enable-background="new 0 0 24 24" xml:space="preserve">
<g>
	<rect y="0.205" fill="#2AA9E0" width="24" height="24"/>
	<path fill="#FFFFFF" d="M20.338,7.706c-0.585,0.262-1.223,0.438-1.887,0.518c0.678-0.407,1.2-1.051,1.444-1.817
		c-0.633,0.375-1.336,0.649-2.082,0.797c-0.6-0.638-1.451-1.037-2.396-1.037c-1.813,0-3.283,1.47-3.283,3.282
		c0,0.257,0.029,0.506,0.087,0.747c-2.732-0.134-5.146-1.443-6.767-3.43C5.172,7.253,5.01,7.816,5.01,8.418
		c0,1.138,0.584,2.143,1.461,2.732c-0.537-0.019-1.045-0.167-1.486-0.413c0,0.015,0,0.027,0,0.042c0,1.589,1.131,2.916,2.632,3.217
		c-0.271,0.076-0.565,0.114-0.863,0.114c-0.211,0-0.419-0.021-0.617-0.059c0.416,1.303,1.626,2.253,3.066,2.28
		c-1.123,0.881-2.541,1.406-4.076,1.406c-0.266,0-0.525-0.018-0.784-0.047c1.455,0.931,3.182,1.475,5.031,1.475
		c6.037,0,9.338-5.001,9.338-9.336c0-0.145-0.006-0.287-0.012-0.427C19.34,8.942,19.898,8.363,20.338,7.706z"/>
</g>
</svg>
