<svg id="Layer_1" data-name="Layer 1" xmlns="http://www.w3.org/2000/svg" width="24" height="24" viewBox="0 0 24 24"><defs><style>.cls-1{fill:#5181b8;}.cls-2{fill:#fff;fill-rule:evenodd;}</style></defs><title>VK_24x24_icon</title><rect class="cls-1" width="24" height="24"/><path class="cls-2" d="M11.32,16.66h1a.91.91,0,0,0,.47-.21.75.75,0,0,0,.14-.44s0-1.36.61-1.57,1.43,1.32,2.27,1.9a1.58,1.58,0,0,0,1.13.35l2.27,0s1.19-.08.63-1a7.65,7.65,0,0,0-1.69-2c-1.42-1.32-1.23-1.11.48-3.4C19.69,8.91,20.1,8.06,20,7.7s-.89-.26-.89-.26l-2.56,0a.54.54,0,0,0-.33.06.74.74,0,0,0-.22.27,16.07,16.07,0,0,1-.94,2c-1.14,1.93-1.6,2-1.78,1.91-.44-.28-.33-1.12-.33-1.72,0-1.88.29-2.66-.55-2.86A4.33,4.33,0,0,0,11.18,7a5.41,5.41,0,0,0-2.13.22c-.29.14-.51.46-.38.48a1.15,1.15,0,0,1,.76.37,2.5,2.5,0,0,1,.25,1.16s.15,2.21-.35,2.48c-.34.19-.82-.19-1.83-2a16.22,16.22,0,0,1-.91-1.89.74.74,0,0,0-.21-.28A1.13,1.13,0,0,0,6,7.43H3.56s-.37,0-.5.17S3,8,3,8a28,28,0,0,0,4.06,6.7,5.87,5.87,0,0,0,4.22,1.92Z"/></svg>