<?xml version="1.0" encoding="utf-8"?>
<!-- Generator: Adobe Illustrator 16.0.3, SVG Export Plug-In . SVG Version: 6.00 Build 0)  -->
<!DOCTYPE svg PUBLIC "-//W3C//DTD SVG 1.1//EN" "http://www.w3.org/Graphics/SVG/1.1/DTD/svg11.dtd">
<svg version="1.1" id="Layer_1" xmlns="http://www.w3.org/2000/svg" xmlns:xlink="http://www.w3.org/1999/xlink" x="0px" y="0px"
	 width="24px" height="24px" viewBox="0 0 24 24" enable-background="new 0 0 24 24" xml:space="preserve">
<g>
	<linearGradient id="SVGID_1_" gradientUnits="userSpaceOnUse" x1="0" y1="12" x2="24" y2="12">
		<stop  offset="0" style="stop-color:#326D95"/>
		<stop  offset="1" style="stop-color:#135379"/>
	</linearGradient>
	<rect fill="url(#SVGID_1_)" width="24" height="24"/>
	<g>
		<path fill-rule="evenodd" clip-rule="evenodd" fill="#DEE8F0" d="M6.798,5.332h10.404C18.191,5.332,19,6.14,19,7.128v10.407
			c0,0.988-0.809,1.796-1.798,1.796H6.798C5.809,19.332,5,18.523,5,17.535V7.128C5,6.14,5.809,5.332,6.798,5.332L6.798,5.332z
			 M15.198,6.887c-0.347,0-0.631,0.284-0.631,0.63v1.509c0,0.346,0.284,0.629,0.631,0.629h1.582c0.348,0,0.63-0.283,0.63-0.629
			V7.517c0-0.347-0.282-0.63-0.63-0.63H15.198L15.198,6.887z M17.419,11.252h-1.233c0.115,0.38,0.181,0.784,0.181,1.201
			c0,2.329-1.95,4.216-4.354,4.216c-2.401,0-4.352-1.887-4.352-4.216c0-0.417,0.064-0.821,0.18-1.201H6.555v5.914
			c0,0.306,0.251,0.556,0.558,0.556h9.748c0.307,0,0.559-0.25,0.559-0.556V11.252L17.419,11.252z M12.013,9.577
			c-1.552,0-2.811,1.22-2.811,2.724c0,1.505,1.259,2.725,2.811,2.725c1.553,0,2.812-1.22,2.812-2.725
			C14.824,10.797,13.565,9.577,12.013,9.577z"/>
	</g>
</g>
</svg>
