<?xml version="1.0" encoding="utf-8"?>
<!-- Generator: Adobe Illustrator 16.0.4, SVG Export Plug-In . SVG Version: 6.00 Build 0)  -->
<!DOCTYPE svg PUBLIC "-//W3C//DTD SVG 1.0//EN" "http://www.w3.org/TR/2001/REC-SVG-20010904/DTD/svg10.dtd">
<svg version="1.0" id="Layer_1" xmlns="http://www.w3.org/2000/svg" xmlns:xlink="http://www.w3.org/1999/xlink" x="0px" y="0px"
	 width="24px" height="24px" viewBox="0 0 24 24" enable-background="new 0 0 24 24" xml:space="preserve">
<rect fill="#DD5044" width="24" height="24"/>
<g>
	<g>
		<path fill-rule="evenodd" clip-rule="evenodd" fill="#FFFFFF" d="M9.47,11.265v2.507h3.377c-0.506,1.332-1.794,2.279-3.303,2.279
			c-1.948,0-3.53-1.582-3.53-3.533c0-1.95,1.582-3.532,3.53-3.532c0.869,0,1.664,0.315,2.279,0.836l1.77-1.731
			c-1.066-0.977-2.488-1.573-4.049-1.573c-3.314,0-6,2.686-6,6c0,3.314,2.686,6,6,6s5.999-2.686,5.999-6
			c0-0.429-0.044-0.849-0.13-1.253H9.47z M20.366,11.454V9.367h-1.519v2.087H16.76v1.52h2.088v2.089h1.519v-2.089h2.09v-1.52H20.366
			z"/>
	</g>
</g>
</svg>
