<?xml version="1.0" encoding="utf-8"?>
<!-- Generator: Adobe Illustrator 16.0.4, SVG Export Plug-In . SVG Version: 6.00 Build 0)  -->
<!DOCTYPE svg PUBLIC "-//W3C//DTD SVG 1.0//EN" "http://www.w3.org/TR/2001/REC-SVG-20010904/DTD/svg10.dtd">
<svg version="1.0" xmlns="http://www.w3.org/2000/svg" xmlns:xlink="http://www.w3.org/1999/xlink" x="0px" y="0px" width="540px"
	 height="38px" viewBox="0 0 540 38" enable-background="new 0 0 540 38" xml:space="preserve">
<symbol  id="Facebook_x5F_icon_x5F_grey" viewBox="0 0 30 30">
	<g>
		<linearGradient id="SVGID_1_" gradientUnits="userSpaceOnUse" x1="15" y1="30" x2="15" y2="-1.907349e-06">
			<stop  offset="0" style="stop-color:#D6D6D6"/>
			<stop  offset="0.9212" style="stop-color:#AFAFAF"/>
			<stop  offset="1" style="stop-color:#989898"/>
		</linearGradient>
		<path fill="url(#SVGID_1_)" d="M30,3c0-1.656-1.344-3-3-3H3C1.344,0,0,1.344,0,3v24c0,1.656,1.344,3,3,3h24c1.656,0,3-1.344,3-3V3
			z"/>
		<g>
			<linearGradient id="SVGID_2_" gradientUnits="userSpaceOnUse" x1="15" y1="0" x2="15" y2="30">
				<stop  offset="0" style="stop-color:#7F7F7F"/>
				<stop  offset="1" style="stop-color:#BCBCBC"/>
			</linearGradient>
			<path fill="url(#SVGID_2_)" d="M27,29c1.103,0,2-0.895,2-1.999v-24C29,1.898,28.103,1,27,1H3C1.897,1,1,1.898,1,3.001v24
				C1,28.105,1.897,29,3,29H27 M27,30H3c-1.65,0-3-1.35-3-2.999v-24C0,1.351,1.35,0,3,0h24c1.65,0,3,1.351,3,3.001v24
				C30,28.65,28.65,30,27,30L27,30z"/>
		</g>
	</g>
	<path opacity="0.5" fill="#FFFFFF" d="M29.05,27c-0.061,1-0.869,2-1.862,2H2.812c-0.993,0-1.802-1-1.862-2H29.05z"/>
	<g>
		<path fill="#777777" d="M19,21h2v4h-3.454C14,25,11.959,21.417,12,19.002V17H8v-4h4V1h5v12h4v4h-4v2.047
			C17,19.835,17.656,21,19,21z"/>
	</g>
	<polygon display="none" fill="none" points="0,30 30,30 30,0 0,0 	"/>
</symbol>
<symbol  id="G_x5F_plus_x5F_icon_x5F_grey" viewBox="0 0 30 30">
	<g>
		<linearGradient id="SVGID_3_" gradientUnits="userSpaceOnUse" x1="15" y1="30" x2="15" y2="-1.907349e-06">
			<stop  offset="0" style="stop-color:#D6D6D6"/>
			<stop  offset="0.9212" style="stop-color:#AFAFAF"/>
			<stop  offset="1" style="stop-color:#989898"/>
		</linearGradient>
		<path fill="url(#SVGID_3_)" d="M30,3c0-1.656-1.344-3-3-3H3C1.344,0,0,1.344,0,3v24c0,1.656,1.344,3,3,3h24c1.656,0,3-1.344,3-3V3
			z"/>
		<g>
			<linearGradient id="SVGID_4_" gradientUnits="userSpaceOnUse" x1="15" y1="0" x2="15" y2="30">
				<stop  offset="0" style="stop-color:#7F7F7F"/>
				<stop  offset="1" style="stop-color:#BCBCBC"/>
			</linearGradient>
			<path fill="url(#SVGID_4_)" d="M27,29c1.103,0,2-0.895,2-1.999v-24C29,1.898,28.103,1,27,1H3C1.897,1,1,1.898,1,3.001v24
				C1,28.105,1.897,29,3,29H27 M27,30H3c-1.65,0-3-1.35-3-2.999v-24C0,1.351,1.35,0,3,0h24c1.65,0,3,1.351,3,3.001v24
				C30,28.65,28.65,30,27,30L27,30z"/>
		</g>
	</g>
	<path opacity="0.5" fill="#FFFFFF" d="M29.05,27c-0.061,1-0.869,2-1.862,2H2.812c-0.993,0-1.802-1-1.862-2H29.05z"/>
	<path opacity="0.2" fill="#FFFFFF" d="M29.05,27c-0.061,1-0.869,2-1.862,2H2.812c-0.993,0-1.802-1-1.862-2H29.05z"/>
	<g>
		<path fill="#777777" d="M14.663,26l1.655,1c-1.747,0-7.252,0-9.316,0C4.72,27,3,26.222,1,24.775V14.647
			c2-1.093,2.954-1.766,4.975-1.766c0.313,0,0.596-0.041,0.894-0.019c-0.069-0.133-0.142-0.29-0.2-0.429
			c0.063,0.005,0.123-0.01,0.186-0.005c-0.256-0.487-0.439-1.034-0.486-1.597C6.421,9.799,6.974,8.945,7.689,8.25
			c-0.121,0-0.24-0.004-0.361-0.005C7.443,8.11,7.56,7.975,7.688,7.849c-0.568,0-1.069-0.018-1.667-0.018
			C4.141,7.831,3,7.415,1,6.73V4.824c2,1.5,3.568,2.516,6.065,2.49C7.949,7.304,8.75,7.162,9.498,6.919
			c2.055-1.431,3.521-2.236,3.936-3.869c0.079-0.327,0.116-0.669,0.116-1.016c0-0.079,0.218-0.158,0.215-0.237
			C13.766,1.743,14,1.389,14,1.333C14,1.322,14,1,14,1h2.009c0.035,0,0.057,0.75,0.062,0.977c-0.048,2.71-0.911,4.533-3.439,6.325
			c-0.893,0.631-2.599,2.241-2.599,3.146c0,0.117,0.007,0.26,0.014,0.365c-0.001,0.022-0.014,0.068-0.014,0.088
			c0,1.059,0.301,1.589,1.894,2.834c1.585,1.237,2.71,3.371,2.774,5.378C14.638,22.517,13.547,24,11.533,26h0.766H14.663z
			 M7.359,13.398c-2.543,0.071-4.96,2.841-5.398,6.18c-0.06,0.445-0.076,0.876-0.062,1.288c-0.053,2.891,1.561,5,3.871,4.929
			c2.541-0.075,4.959-2.754,5.396-6.094c0.061-0.444,0.077-0.877,0.062-1.291C11.282,15.507,9.668,13.324,7.359,13.398z"/>
		<polygon fill="#777777" points="27,13 23,13 23,17 21,17 21,13 17,13 17,11 21,11 21,7 23,7 23,11 27,11 		"/>
	</g>
	<polygon display="none" fill="none" points="0,30 30,30 30,0 0,0 	"/>
</symbol>
<symbol  id="Instagram_x5F_icon_x5F_grey" viewBox="0 0 30 30">
	<g>
		<g>
			<linearGradient id="SVGID_5_" gradientUnits="userSpaceOnUse" x1="15" y1="30" x2="15" y2="-1.907349e-06">
				<stop  offset="0" style="stop-color:#D6D6D6"/>
				<stop  offset="0.9212" style="stop-color:#AFAFAF"/>
				<stop  offset="1" style="stop-color:#989898"/>
			</linearGradient>
			<path fill="url(#SVGID_5_)" d="M30,3c0-1.656-1.343-3-3-3H3C1.343,0,0,1.344,0,3v24c0,1.656,1.343,3,3,3h24c1.657,0,3-1.344,3-3
				V3z"/>
			<g>
				<linearGradient id="SVGID_6_" gradientUnits="userSpaceOnUse" x1="15" y1="0" x2="15" y2="30">
					<stop  offset="0" style="stop-color:#7F7F7F"/>
					<stop  offset="1" style="stop-color:#BCBCBC"/>
				</linearGradient>
				<path fill="url(#SVGID_6_)" d="M27,29c1.103,0,2-1.098,2-2.201v-24C29,1.695,28.062,1,26.96,1h-24C1.857,1,1,1.695,1,2.799v24
					C1,27.902,1.857,29,2.96,29H27 M26.96,30h-24C1.31,30,0,28.449,0,26.799v-24C0,1.148,1.31,0,2.96,0h24
					C28.61,0,30,1.148,30,2.799v24C30,28.449,28.63,30,26.98,30H26.96z"/>
			</g>
		</g>
		<path opacity="0.5" fill="#FFFFFF" d="M29.009,27c-0.06,1-0.869,2-1.862,2H2.772c-0.993,0-1.802-1-1.862-2H29.009z"/>
		<path opacity="0.2" fill="#FFFFFF" d="M29.009,27c-0.06,1-0.869,2-1.862,2H2.772c-0.993,0-1.802-1-1.862-2H29.009z"/>
		<g>
			<path fill-rule="evenodd" clip-rule="evenodd" fill="#777777" d="M8.27,23H21.65c1.271,0,2.35-1.24,2.35-2.512V7.109
				C24,5.838,22.921,5,21.65,5H8.27C6.999,5,6,5.838,6,7.109v13.379C6,21.76,7.019,23,8.29,23H8.27z M22,20.189
				C22,20.637,21.637,21,21.188,21h-2.377C18.363,21,18,20.637,18,20.189v-2.379C18,17.363,18.363,17,18.812,17h2.377
				C21.637,17,22,17.363,22,17.811V20.189z M22,15h-1.66c0.151,0,0.232-0.915,0.232-1.451c0-2.994-2.505-5.375-5.596-5.375
				c-3.089,0-5.594,2.357-5.594,5.352C9.382,14.062,9.463,15,9.613,15H8V7.584C8,7.189,8.281,7,8.674,7h12.537
				C21.604,7,22,7.189,22,7.584V15L22,15z M14.977,17.34c-1.997,0-3.615-1.566-3.615-3.502s1.618-3.503,3.615-3.503
				c1.998,0,3.616,1.567,3.616,3.503S16.975,17.34,14.977,17.34z"/>
		</g>
	</g>
	<polygon display="none" fill="none" points="0,30 30,30 30,0 0,0 	"/>
</symbol>
<symbol  id="Logo_x5F_WB_x5F_50x50" viewBox="0 0 50 50">
	<g>
		<polygon fill="#6F7073" points="50,0 0,0 0,50 50,50 		"/>
		<path d="M23.988,32.992c1.119-0.043,2.129-0.755,2.865-1.544C27.626,30.618,28.102,30,28.102,28h0.004h-0.004
			c0-1-0.476-2.203-1.248-3.028c-0.477-0.512-1.06-0.792-1.717-1.017L29.99,17h-8.911l-4.323,7H14v-7H6v16
			C6,33,23.847,32.995,23.988,32.992z M17.302,26c0.627,0,1.195,0.002,1.614,0.451C19.363,26.932,19.641,28,19.641,28h-0.003h0.003
			c0,1-0.277,1.566-0.725,2.048C18.497,30.496,17.929,31,17.302,31h-0.133H14v-5H17.302z"/>
		<polygon points="35,31 28,31 28,33 50,33 50,31 43,31 43,17 35,17 		"/>
	</g>
	<polygon display="none" fill="none" points="0,50 50,50 50,0 0,0 	"/>
</symbol>
<symbol  id="Logo_x5F_non_x5F_grad" viewBox="0 -80 80 80">
	<polygon fill="#77BC1F" points="0,-80 80,-80 80,0 0,0 	"/>
	<g>
		<polygon points="56,-31 45,-31 45,-28 80,-28 80,-30.698 69,-30.694 69,-52 56,-52 		"/>
		<path d="M38.664-28c1.772-0.066,3.446-0.701,4.619-1.91C44.5-31.184,45.332-33,45.332-35h0.01h-0.01c0-2-0.756-3.566-1.974-4.828
			c-0.76-0.785-1.682-1.311-2.723-1.654L48.329-52H34.202l-6.854,10H23v-10H10v24h8 M28.216-39c0.99,0,1.893,0.471,2.558,1.162
			C31.486-37.104,31.922-36,31.922-35h-0.006h0.006c0,1-0.436,2.104-1.148,2.839C30.108-31.472,29.206-31,28.216-31h-0.211H23v-8
			H28.216z"/>
	</g>
	<polygon display="none" fill="none" points="0,0 80,0 80,-80 0,-80 	"/>
</symbol>
<symbol  id="Search_string_magnifier" viewBox="-259 -28 259 28">
	<g>
		<path fill="#EDEDED" d="M0-26c0-1.104-0.896-2-2-2h-255c-1.104,0-2,0.896-2,2v24c0,1.104,0.896,2,2,2H-2c1.104,0,2-0.896,2-2V-26z
			"/>
	</g>
	<g>
		<path fill="#757575" d="M-5.997-21.42l-2.101-2.101l-5.081,5.081c-1.36-0.92-3-1.44-4.641-1.44c-4.521,0-8.182,3.661-8.182,8.182
			c0,4.521,3.661,8.182,8.182,8.182c4.521,0,8.182-3.66,8.182-8.182c0-1.641-0.5-3.28-1.44-4.621L-5.997-21.42z M-17.819-6.237
			c-3.021,0-5.461-2.44-5.461-5.461c0-3.001,2.46-5.441,5.461-5.441c3.001,0,5.441,2.44,5.441,5.441S-14.818-6.237-17.819-6.237z"/>
	</g>
	<polygon display="none" fill="none" points="-259,0 0,0 0,-28 -259,-28 	"/>
</symbol>
<symbol  id="Search_string_magnifier_3" viewBox="-259 -28 259 28">
	<g>
		<path fill="#EDEDED" d="M0-26c0-1.104-0.896-2-2-2h-255c-1.104,0-2,0.896-2,2v24c0,1.104,0.896,2,2,2H-2c1.104,0,2-0.896,2-2V-26z
			"/>
	</g>
	<g>
		<path fill="#757575" d="M-5.997-21.42l-2.101-2.101l-5.081,5.081c-1.36-0.92-3-1.44-4.641-1.44c-4.521,0-8.182,3.661-8.182,8.182
			c0,4.521,3.661,8.182,8.182,8.182c4.521,0,8.182-3.66,8.182-8.182c0-1.641-0.5-3.28-1.44-4.621L-5.997-21.42z M-17.819-6.237
			c-3.021,0-5.461-2.44-5.461-5.461c0-3.001,2.46-5.441,5.461-5.441c3.001,0,5.441,2.44,5.441,5.441S-14.818-6.237-17.819-6.237z"/>
	</g>
	<polygon display="none" fill="none" points="-259,0 0,0 0,-28 -259,-28 	"/>
</symbol>
<symbol  id="Twitter_x5F_icon_x5F_grey" viewBox="0 0 30 30">
	<g>
		<linearGradient id="SVGID_7_" gradientUnits="userSpaceOnUse" x1="15" y1="30" x2="15" y2="-1.907349e-06">
			<stop  offset="0" style="stop-color:#D6D6D6"/>
			<stop  offset="0.9212" style="stop-color:#AFAFAF"/>
			<stop  offset="1" style="stop-color:#989898"/>
		</linearGradient>
		<path fill="url(#SVGID_7_)" d="M30,3c0-1.656-1.344-3-3-3H3C1.344,0,0,1.344,0,3v24c0,1.656,1.344,3,3,3h24c1.656,0,3-1.344,3-3V3
			z"/>
		<g>
			<linearGradient id="SVGID_8_" gradientUnits="userSpaceOnUse" x1="15" y1="0" x2="15" y2="30">
				<stop  offset="0" style="stop-color:#7F7F7F"/>
				<stop  offset="1" style="stop-color:#BCBCBC"/>
			</linearGradient>
			<path fill="url(#SVGID_8_)" d="M27,29c1.103,0,2-0.895,2-1.999v-24C29,1.898,28.103,1,27,1H3C1.897,1,1,1.898,1,3.001v24
				C1,28.105,1.897,29,3,29H27 M27,30H3c-1.65,0-3-1.35-3-2.999v-24C0,1.351,1.35,0,3,0h24c1.65,0,3,1.351,3,3.001v24
				C30,28.65,28.65,30,27,30L27,30z"/>
		</g>
	</g>
	<path opacity="0.5" fill="#FFFFFF" d="M29.05,27c-0.061,1-0.869,2-1.862,2H2.812c-0.993,0-1.802-1-1.862-2H29.05z"/>
	<path opacity="0.2" fill="#FFFFFF" d="M29.05,27c-0.061,1-0.869,2-1.862,2H2.812c-0.993,0-1.802-1-1.862-2H29.05z"/>
	<g>
		<path fill="#777777" d="M24.342,20.211c-0.695-0.312-1.452-0.521-2.238-0.614c0.803,0.482,1.423,1.245,1.712,2.156
			c-0.752-0.444-1.586-0.77-2.473-0.944c-0.712,0.757-1.724,1.23-2.847,1.23c-2.151,0-3.898-1.744-3.898-3.898
			c0-0.306,0.034-0.602,0.104-0.888c-3.244,0.162-6.113,1.714-8.037,4.071c-0.335-0.576-0.528-1.245-0.528-1.961
			c0-1.352,0.637-2.544,1.683-3.242C7.18,16.142,7,16.317,6,16.609c0-0.019,0-0.033,0-0.049c0-1.889,1.397-3.465,3.179-3.823
			c-0.325-0.09-0.645-0.136-1-0.136c-0.252,0-0.486,0.023-0.721,0.067c0.495-1.544,1.941-2.673,3.65-2.703
			C9.773,8.916,8.094,8.292,6.27,8.292c-0.316,0-0.624,0.022-0.93,0.057c1.725-1.108,3.776-1.751,5.977-1.751
			c7.171,0,11.092,5.941,11.092,11.09c0,0.171-0.004,0.34-0.013,0.507C23.158,18.742,23.82,19.43,24.342,20.211z"/>
	</g>
	<polygon display="none" fill="none" points="0,30 30,30 30,0 0,0 	"/>
</symbol>
<symbol  id="You_x5F_tube_x5F_icon_x5F_grey" viewBox="0 0 30 30">
	<g>
		<linearGradient id="SVGID_9_" gradientUnits="userSpaceOnUse" x1="15" y1="30" x2="15" y2="-1.907349e-06">
			<stop  offset="0" style="stop-color:#D6D6D6"/>
			<stop  offset="0.9212" style="stop-color:#AFAFAF"/>
			<stop  offset="1" style="stop-color:#989898"/>
		</linearGradient>
		<path fill="url(#SVGID_9_)" d="M30,3c0-1.656-1.344-3-3-3H3C1.344,0,0,1.344,0,3v24c0,1.656,1.344,3,3,3h24c1.656,0,3-1.344,3-3V3
			z"/>
		<g>
			<linearGradient id="SVGID_10_" gradientUnits="userSpaceOnUse" x1="15" y1="0" x2="15" y2="30">
				<stop  offset="0" style="stop-color:#7F7F7F"/>
				<stop  offset="1" style="stop-color:#BCBCBC"/>
			</linearGradient>
			<path fill="url(#SVGID_10_)" d="M27,29c1.103,0,2-0.895,2-1.999v-24C29,1.898,28.103,1,27,1H3C1.897,1,1,1.898,1,3.001v24
				C1,28.105,1.897,29,3,29H27 M27,30H3c-1.65,0-3-1.35-3-2.999v-24C0,1.351,1.35,0,3,0h24c1.65,0,3,1.351,3,3.001v24
				C30,28.65,28.65,30,27,30L27,30z"/>
		</g>
	</g>
	<path opacity="0.5" fill="#FFFFFF" d="M29.05,27c-0.061,1-0.869,2-1.862,2H2.812c-0.993,0-1.802-1-1.862-2H29.05z"/>
	<path opacity="0.2" fill="#FFFFFF" d="M29.05,27c-0.061,1-0.869,2-1.862,2H2.812c-0.993,0-1.802-1-1.862-2H29.05z"/>
	<g>
		<g>
			<path opacity="0.3" fill-rule="evenodd" clip-rule="evenodd" fill="#777777" d="M12.702,28h-1.515l-1.023-3.931L9.101,28H7.524
				c0.314-1,0.442-1.969,0.761-2.896C8.766,23.707,9,22.545,9,21.829V18h2v3.829L12.702,28z M17,20.19v2.61
				c0,0.798-0.283,1.381-0.565,1.758c-0.374,0.509-0.974,0.766-1.65,0.766c-0.675,0-1.094-0.257-1.467-0.766
				C13.03,24.182,13,23.599,13,22.801v-2.61c0-0.792-0.006-1.381,0.281-1.754c0.373-0.511,0.826-0.764,1.501-0.764
				c0.677,0,1.314,0.253,1.688,0.764C16.753,18.81,17,19.398,17,20.19z M15,19.935c0-0.689-0.064-1.036-0.5-1.036
				S14,19.245,14,19.935v3.137c0,0.69,0.064,1.036,0.5,1.036s0.5-0.346,0.5-1.036V19.935z M22,18v7h-2v-5.468
				c0-0.425-0.406-0.634-0.677-0.634c-0.181,0-0.281,0.109-0.312,0.316C18.994,19.26,19,19.425,19,19.743V25h-1v-5.665
				c0-0.525-0.045-0.883,0.029-1.108c0.135-0.378,0.214-0.554,0.648-0.554c0.493,0,1.322,0.3,1.322,0.917V18H22z"/>
			<path fill-rule="evenodd" clip-rule="evenodd" fill="#777777" d="M12.705,28H11.19l-1.021-3.93L9.104,28H7.527
				c0.315-1,0.443-1.886,0.758-2.815C8.769,23.789,9,22.711,9,21.991V18h2v3.991L12.705,28z M17,20.353v2.613
				c0,0.796-0.281,1.378-0.564,1.757c-0.374,0.508-0.971,0.763-1.648,0.763c-0.675,0-1.096-0.255-1.469-0.763
				C13.031,24.344,13,23.762,13,22.966v-2.613c0-0.792-0.004-1.38,0.283-1.755c0.373-0.509,0.828-0.764,1.502-0.764
				c0.678,0,1.312,0.255,1.686,0.764C16.754,18.973,17,19.561,17,20.353z M15,20.099c0-0.691-0.063-1.035-0.5-1.035
				c-0.436,0-0.5,0.344-0.5,1.035v3.137c0,0.69,0.064,1.035,0.5,1.035c0.437,0,0.5-0.345,0.5-1.035V20.099z M22,18v7h-2v-5.305
				c0-0.422-0.404-0.632-0.675-0.632c-0.183,0-0.283,0.105-0.312,0.315C18.996,19.424,19,19.588,19,19.904V25h-1v-5.501
				c0-0.526-0.045-0.885,0.031-1.109c0.135-0.38,0.212-0.556,0.646-0.556c0.493,0,1.322,0.3,1.322,0.918V18H22z"/>
		</g>
		<path opacity="0.5" fill-rule="evenodd" clip-rule="evenodd" fill="#FFFFFF" d="M26.088,8.886c0-1.724-0.004-3.554-0.39-5.23
			c-0.269-1.176-1.232-2.044-2.391-2.173c-2.744-0.309-5.521-0.309-8.286-0.309s-5.542,0-8.286,0.309
			c-1.159,0.129-2.12,0.997-2.392,2.173c-0.387,1.677-0.387,3.507-0.387,5.23l0,0c0,1.726,0.006,3.556,0.393,5.23
			c0.27,1.179,1.231,2.046,2.39,2.174c2.744,0.308,5.521,0.309,8.287,0.308c2.765,0.001,5.541,0,8.286-0.308
			c1.157-0.128,2.12-0.995,2.392-2.174C26.089,12.441,26.088,10.611,26.088,8.886L26.088,8.886z"/>
		<path fill-rule="evenodd" clip-rule="evenodd" fill="#777777" d="M10,13v1H6v-1h1V4h2v9H10z M13,4v0.903
			c-1-0.608-1.05-0.905-1.542-0.905c-0.431,0-0.967,0.176-1.101,0.548C10.284,4.771,10,5.123,10,5.645V11h2V6.045
			c0-0.312-0.1-0.476-0.086-0.519c0.032-0.207,0.098-0.313,0.275-0.313C12.459,5.213,13,5.419,13,5.84V11h1V4H13z M18,6.209
			c0-0.666-0.072-0.996-0.458-0.996C17.32,5.213,17,5.319,17,5.543v4.498c0,0.219,0.32,0.324,0.542,0.324
			c0.386,0,0.458-0.342,0.458-1.007V6.209z M19,6.314v2.938c0,0.698,0.149,1.187,0.062,1.482c-0.18,0.555-0.343,0.834-0.876,0.834
			c-0.49,0-1.186-0.27-1.186-0.801V14h-2V4h2v0.815c0-0.554,0.809-0.817,1.283-0.817c0.533,0,0.647,0.28,0.827,0.829
			C19.198,5.141,19,5.632,19,6.314z M23.101,8.659h-1.338v0.682c0,0.683,0.225,1.024,0.672,1.024c0.442,0,0.666-0.342,0.666-1.024
			V8.659z M24,6.46V7h-0.927c0-1-0.018-1.006-0.029-1.08c-0.076-0.355-0.149-0.621-0.479-0.621C22.105,5.299,22,5.555,22,6.238V8h2
			v1.074c0,0.788,0.085,1.365-0.194,1.738c-0.375,0.506-0.798,0.757-1.469,0.757c-0.684,0-1.376-0.251-1.761-0.757
			C20.289,10.439,20,9.862,20,9.074V6.488c0-0.783,0.362-1.365,0.646-1.735c0.385-0.503,1.025-0.755,1.725-0.755
			s1.302,0.264,1.672,0.799c0.162,0.237,0.076,0.505,0.121,0.802C24.176,5.732,24,6.03,24,6.46z"/>
	</g>
	<polygon display="none" fill="none" points="0,30 30,30 30,0 0,0 	"/>
</symbol>
<g id="Layer_1">
</g>
<g id="Layer_2">
	<g id="Anonim_x5F_avatar">
	</g>
	<g id="An_x5F_avatar">
	</g>
	<g id="Header_x5F_1024">
	</g>
	<g id="Header_1_">
	</g>
	<g id="Header">
		<g id="arrow_x5F_drop_x5F_down">
		</g>
	</g>
</g>
<g id="Layer_3">
</g>
<g id="Layer_4">
</g>
<g id="Layer_7">
</g>
<g id="Layer_8">
</g>
<g id="Layer_9">
</g>
<g id="Layer_10">
</g>
<g id="Layer_13">
</g>
<g id="Layer_14">
</g>
<g id="Layer_15">
</g>
<g id="Layer_16">
</g>
<g id="Layer_17">
</g>
<g id="Layer_18">
</g>
<g id="Layer_19">
</g>
<g id="Layer_20">
</g>
<g id="Layer_23">
	<g id="footer_x5F_1024">
	</g>
	<g>
		<path d="M246,5.836C246,2.563,243.542,0,240.403,0H138.861C135.629,0,133,2.618,133,5.836v26.326c0,3.22,2.629,5.838,5.861,5.838
			h101.542c3.348,0,5.597-2.084,5.597-5.186V5.836z"/>
		<g>
			<g>
				<path fill="#FFFFFF" d="M210.021,27.448l-0.851,0.803c-0.196,0.107-0.392,0.233-0.587,0.322
					c-0.591,0.269-1.191,0.336-1.726,0.336c-0.568,0-1.458-0.037-2.367-0.694c-1.262-0.889-1.814-2.417-1.814-3.749
					c0-2.757,2.244-4.109,4.075-4.109c0.64,0,1.297,0.16,1.832,0.498c0.888,0.588,1.119,1.352,1.246,1.761l-4.181,1.688
					l-1.369,0.106c0.443,2.261,1.973,3.575,3.663,3.575c0.844,0,1.471-0.275,2.046-0.56
					C209.988,27.426,210.103,27.366,210.021,27.448z M207.499,22.951c0.339-0.123,0.516-0.229,0.516-0.478
					c0-0.71-0.804-1.53-1.763-1.53c-0.711,0-2.044,0.553-2.044,2.475c0,0.3,0.036,0.619,0.054,0.938L207.499,22.951z"/>
				<path fill="#FFFFFF" d="M201.279,27.311c0,0.691,0.124,0.799,0.708,0.853c0.305,0.036,0.608,0.052,0.909,0.088l-0.658,0.392
					h-3.134c0.411-0.533,0.481-0.587,0.481-0.942v-0.396l-0.006-10.573h-1.384l1.332-0.642h2.543
					c-0.552,0.318-0.716,0.514-0.787,1.136L201.279,27.311z"/>
				<path fill="#FFFFFF" d="M196.419,21.229c0.408,0.336,1.26,1.048,1.26,2.399c0,1.316-0.742,1.938-1.491,2.525
					c-0.229,0.23-0.498,0.481-0.498,0.87c0,0.393,0.269,0.606,0.462,0.766l0.643,0.496c0.781,0.659,1.493,1.264,1.493,2.491
					c0,1.673-1.619,3.359-4.678,3.359c-2.577,0-3.823-1.227-3.823-2.542c0-0.642,0.318-1.548,1.37-2.169
					c1.103-0.675,2.597-0.765,3.396-0.817c-0.25-0.322-0.535-0.66-0.535-1.211c0-0.302,0.091-0.481,0.178-0.693
					c-0.194,0.019-0.391,0.037-0.569,0.037c-1.886,0-2.952-1.406-2.952-2.793c0-0.818,0.373-1.726,1.139-2.383
					c1.014-0.835,2.223-0.979,3.184-0.979h3.665l-1.14,0.644H196.419z M195.159,29.124c-0.146-0.02-0.233-0.02-0.409-0.02
					c-0.161,0-1.122,0.035-1.866,0.285c-0.394,0.145-1.531,0.569-1.531,1.832c0,1.261,1.229,2.17,3.129,2.17
					c1.707,0,2.614-0.818,2.614-1.92C197.095,30.564,196.508,30.086,195.159,29.124z M195.67,25.745
					c0.411-0.41,0.447-0.978,0.447-1.3c0-1.278-0.763-3.271-2.241-3.271c-0.461,0-0.961,0.231-1.245,0.589
					c-0.3,0.37-0.391,0.852-0.391,1.313c0,1.19,0.694,3.166,2.222,3.166C194.909,26.243,195.389,26.026,195.67,25.745z"/>
				<path fill="#FFFFFF" d="M185.394,28.872c-2.827,0-4.339-2.201-4.339-4.194c0-2.328,1.901-4.321,4.606-4.321
					c2.614,0,4.252,2.047,4.252,4.196C189.912,26.651,188.293,28.872,185.394,28.872z M187.617,27.434
					c0.43-0.569,0.534-1.279,0.534-1.973c0-1.565-0.746-4.553-2.952-4.553c-0.586,0-1.177,0.229-1.603,0.604
					c-0.695,0.622-0.818,1.404-0.818,2.172c0,1.757,0.868,4.654,3.023,4.654C186.498,28.338,187.208,28.002,187.617,27.434z"/>
				<path fill="#FFFFFF" d="M175.929,28.872c-2.827,0-4.337-2.201-4.337-4.194c0-2.328,1.902-4.321,4.605-4.321
					c2.613,0,4.249,2.047,4.249,4.196C180.446,26.651,178.83,28.872,175.929,28.872z M178.153,27.434
					c0.427-0.569,0.533-1.279,0.533-1.973c0-1.565-0.748-4.553-2.951-4.553c-0.589,0-1.173,0.229-1.6,0.604
					c-0.696,0.622-0.819,1.404-0.819,2.172c0,1.757,0.872,4.654,3.023,4.654C177.034,28.338,177.743,28.002,178.153,27.434z"/>
				<path fill="#FFFFFF" d="M170.461,28.255l-2.384,0.546c-0.966,0.152-1.833,0.287-2.752,0.287c-4.599,0-6.351-3.386-6.351-6.034
					c0-3.236,2.482-6.235,6.734-6.235c0.899,0,1.765,0.132,2.554,0.347c1.25,0.352,1.833,0.784,2.199,1.038l-1.385,1.315
					l-0.584,0.131l0.417-0.664c-0.564-0.551-1.601-1.567-3.568-1.567c-2.63,0-4.614,1.999-4.614,4.919
					c0,3.135,2.266,6.084,5.899,6.084c1.068,0,1.618-0.215,2.116-0.415v-2.688l-2.517,0.136l1.334-0.718h3.533l-0.432,0.416
					c-0.117,0.1-0.132,0.133-0.165,0.266c-0.018,0.152-0.034,0.635-0.034,0.805V28.255z"/>
			</g>
			<g>
				<path fill="#FFFFFF" d="M215.147,27.524v4.529h-0.899V20.528h0.899v1.312c0.585-0.849,1.656-1.521,2.9-1.521
					c2.23,0,3.733,1.692,3.733,4.371c0,2.66-1.503,4.389-3.733,4.389C216.873,29.079,215.822,28.474,215.147,27.524z M220.814,24.69
					c0-2.019-1.052-3.559-2.918-3.559c-1.159,0-2.267,0.911-2.749,1.705v3.689c0.481,0.795,1.59,1.739,2.749,1.739
					C219.762,28.266,220.814,26.712,220.814,24.69z"/>
				<path fill="#FFFFFF" d="M223.009,28.871V17.346h0.899v11.525H223.009z"/>
				<path fill="#FFFFFF" d="M234.002,31.309c0.192,0.085,0.52,0.139,0.729,0.139c0.55,0,0.933-0.226,1.277-1.021l0.656-1.486
					l-3.544-8.412h1.004l3.04,7.29l3.01-7.29h1.018l-4.322,10.178c-0.448,1.049-1.154,1.553-2.123,1.553
					c-0.291,0-0.674-0.052-0.899-0.12L234.002,31.309z"/>
				<path fill="#FFFFFF" d="M231.375,28.846c-0.06-0.289-0.106-0.544-0.139-0.757c-0.027-0.213-0.043-0.43-0.043-0.65
					c-0.309,0.453-0.746,0.83-1.304,1.127c-0.558,0.298-1.089,0.445-1.817,0.445c-0.876,0-1.556-0.216-2.042-0.653
					c-0.483-0.438-0.727-1.029-0.727-1.778c0-0.747,0.353-1.354,1.056-1.818c0.702-0.467,1.612-0.698,2.736-0.698h2.098v-1.037
					c0-0.597-0.204-1.066-0.61-1.407c-0.408-0.34-0.98-0.513-1.723-0.513c-0.678,0-1.228,0.157-1.647,0.464
					c-0.416,0.313-0.625,0.701-0.625,1.168h-0.92l-0.02-0.044c-0.033-0.63,0.255-1.184,0.868-1.66
					c0.61-0.478,1.41-0.718,2.394-0.718c0.98,0,1.774,0.236,2.373,0.708c0.597,0.466,0.897,1.14,0.897,2.021v4.116
					c0,0.295,0.014,0.58,0.051,0.859c0.038,0.278,0.098,0.557,0.179,0.825H231.375z M228.182,28.19c0.764,0,1.313-0.17,1.875-0.508
					c0.557-0.336,0.937-0.774,1.136-1.305v-1.602h-2.108c-0.806,0-1.472,0.178-1.997,0.538c-0.525,0.357-0.792,0.792-0.792,1.296
					c0,0.476,0.169,0.856,0.504,1.145C227.137,28.046,227.597,28.19,228.182,28.19z"/>
			</g>
		</g>
		<g>
			<g>
				<path fill="#FFFFFF" d="M159.013,7.891c0-1.771,1.316-2.91,2.952-2.91c1.097,0,1.814,0.522,2.261,1.164l-0.802,0.464
					c-0.304-0.422-0.835-0.751-1.459-0.751c-1.113,0-1.94,0.844-1.94,2.033c0,1.172,0.827,2.032,1.94,2.032
					c0.574,0,1.08-0.261,1.333-0.506V8.548h-1.687V7.68h2.666v2.1c-0.549,0.616-1.341,1.029-2.312,1.029
					C160.329,10.809,159.013,9.653,159.013,7.891z"/>
				<path fill="#FFFFFF" d="M165.497,10.699V5.073h3.854v0.869h-2.868v1.45h2.81v0.869h-2.81v1.569h2.868v0.868H165.497z"/>
				<path fill="#FFFFFF" d="M172.083,10.699V5.942h-1.704V5.073h4.395v0.869h-1.704v4.757H172.083z"/>
				<path fill="#FFFFFF" d="M178.204,10.699V5.073h0.986v5.626H178.204z"/>
				<path fill="#FFFFFF" d="M181.939,10.699V5.942h-1.704V5.073h4.395v0.869h-1.704v4.757H181.939z"/>
				<path fill="#FFFFFF" d="M187.815,7.891c0-1.679,1.189-2.91,2.877-2.91c1.678,0,2.876,1.231,2.876,2.91s-1.198,2.91-2.876,2.91
					C189.005,10.801,187.815,9.569,187.815,7.891z M192.556,7.891c0-1.164-0.734-2.033-1.864-2.033
					c-1.139,0-1.865,0.869-1.865,2.033c0,1.155,0.726,2.032,1.865,2.032C191.822,9.923,192.556,9.046,192.556,7.891z"/>
				<path fill="#FFFFFF" d="M198.644,10.699l-2.936-4.023v4.023h-0.987V5.073h1.013l2.876,3.896V5.073h0.987v5.626H198.644z"/>
			</g>
		</g>
		<g>
			<polygon fill="none" points="147.228,24.221 150.114,21.334 150.113,21.334 147.228,24.221 138.018,15.011 138.017,15.011 
				147.228,24.222 138.003,33.447 138.003,33.447 147.228,24.222 150.126,27.12 150.128,27.12 			"/>
			
				<linearGradient id="SVGID_11_" gradientUnits="userSpaceOnUse" x1="4111.1289" y1="238.9746" x2="4098.9678" y2="231.3636" gradientTransform="matrix(0.7071 0.7071 -0.7071 0.7071 -2592.7134 -3052.4775)">
				<stop  offset="0" style="stop-color:#D6FFA1"/>
				<stop  offset="0.3264" style="stop-color:#93E2A7"/>
				<stop  offset="1" style="stop-color:#00A3B5"/>
			</linearGradient>
			<path fill="url(#SVGID_11_)" d="M150.113,21.334l-11.245-6.182c-0.318-0.175-0.613-0.216-0.851-0.142l9.21,9.21L150.113,21.334z"
				/>
			
				<linearGradient id="SVGID_12_" gradientUnits="userSpaceOnUse" x1="4104.0557" y1="232.4727" x2="4119.8267" y2="236.5954" gradientTransform="matrix(0.7071 0.7071 -0.7071 0.7071 -2592.7134 -3052.4775)">
				<stop  offset="0" style="stop-color:#FF177B"/>
				<stop  offset="0.6721" style="stop-color:#FFA976"/>
				<stop  offset="1" style="stop-color:#FFEC73"/>
			</linearGradient>
			<path fill="url(#SVGID_12_)" d="M150.128,27.12l3.838-2.11c0.778-0.43,0.778-1.128,0-1.557l-3.853-2.119l-2.886,2.887
				L150.128,27.12z"/>
			
				<linearGradient id="SVGID_13_" gradientUnits="userSpaceOnUse" x1="4112.8574" y1="244.7461" x2="4095.7593" y2="234.6866" gradientTransform="matrix(0.7071 0.7071 -0.7071 0.7071 -2592.7134 -3052.4775)">
				<stop  offset="0" style="stop-color:#63FFD4"/>
				<stop  offset="0.4854" style="stop-color:#32A0BA"/>
				<stop  offset="0.8349" style="stop-color:#1262A9"/>
				<stop  offset="1" style="stop-color:#064AA2"/>
			</linearGradient>
			<path fill="url(#SVGID_13_)" d="M138.017,15.011c-0.342,0.107-0.563,0.454-0.563,0.978l0.002,16.486
				c0,0.518,0.214,0.859,0.547,0.973l9.225-9.226L138.017,15.011z"/>
			
				<linearGradient id="SVGID_14_" gradientUnits="userSpaceOnUse" x1="4119.0664" y1="236.7607" x2="4108.5391" y2="250.63" gradientTransform="matrix(0.7071 0.7071 -0.7071 0.7071 -2592.7134 -3052.4775)">
				<stop  offset="0" style="stop-color:#FF4521"/>
				<stop  offset="0.3411" style="stop-color:#D43E65"/>
				<stop  offset="0.7935" style="stop-color:#9F36B9"/>
				<stop  offset="1" style="stop-color:#8A33DB"/>
			</linearGradient>
			<path fill="url(#SVGID_14_)" d="M138.003,33.447c0.239,0.081,0.54,0.044,0.866-0.136l11.258-6.191l-2.899-2.898L138.003,33.447z"
				/>
		</g>
	</g>
	<g>
		<path d="M132,34.191c0,2.104-1.699,3.809-3.802,3.809H3.806C1.705,38,0,36.295,0,34.191V3.814C0,1.711,1.705,0,3.806,0h124.393
			c2.103,0,3.8,1.711,3.8,3.814v30.377H132z"/>
		<path fill="#FFFFFF" d="M29.08,18.791c-0.029-3.205,2.625-4.765,2.746-4.838c-1.503-2.19-3.833-2.489-4.651-2.514
			c-1.957-0.205-3.854,1.17-4.851,1.17c-1.017,0-2.551-1.149-4.205-1.117c-2.129,0.034-4.12,1.267-5.211,3.18
			c-2.254,3.901-0.573,9.637,1.586,12.79c1.08,1.545,2.342,3.269,3.994,3.207c1.617-0.066,2.22-1.028,4.17-1.028
			c1.933,0,2.5,1.028,4.184,0.99c1.735-0.028,2.827-1.552,3.869-3.109c1.248-1.771,1.75-3.515,1.769-3.604
			C32.441,23.903,29.113,22.634,29.08,18.791z"/>
		<path fill="#FFFFFF" d="M25.897,9.365c0.869-1.088,1.464-2.566,1.299-4.067c-1.258,0.055-2.832,0.87-3.738,1.934
			c-0.802,0.938-1.518,2.473-1.333,3.918C23.539,11.254,24.99,10.435,25.897,9.365z"/>
		<g>
			<path fill="#FFFFFF" d="M52.489,30.448H50.23l-1.237-3.89h-4.3l-1.179,3.89h-2.199l4.262-13.236h2.631L52.489,30.448z
				 M48.62,24.929l-1.119-3.455c-0.119-0.354-0.341-1.186-0.667-2.494h-0.04c-0.131,0.563-0.341,1.395-0.628,2.494l-1.1,3.455H48.62
				z"/>
			<path fill="#FFFFFF" d="M63.427,25.559c0,1.623-0.44,2.905-1.323,3.849c-0.79,0.838-1.772,1.256-2.942,1.256
				c-1.265,0-2.174-0.45-2.726-1.354v5.008h-2.12V24.041c0-1.02-0.027-2.063-0.079-3.137h1.865l0.119,1.514h0.04
				c0.707-1.142,1.78-1.71,3.22-1.71c1.126,0,2.066,0.444,2.818,1.334C63.05,22.934,63.427,24.105,63.427,25.559z M61.267,25.637
				c0-0.93-0.209-1.695-0.629-2.298c-0.458-0.629-1.074-0.943-1.846-0.943c-0.523,0-0.999,0.176-1.423,0.521
				c-0.426,0.348-0.705,0.802-0.834,1.365c-0.066,0.264-0.099,0.478-0.099,0.647v1.592c0,0.693,0.214,1.279,0.639,1.757
				c0.426,0.479,0.979,0.718,1.659,0.718c0.799,0,1.42-0.31,1.865-0.922C61.044,27.456,61.267,26.645,61.267,25.637z"/>
			<path fill="#FFFFFF" d="M74.404,25.559c0,1.623-0.441,2.905-1.323,3.849c-0.791,0.838-1.771,1.256-2.942,1.256
				c-1.264,0-2.172-0.45-2.726-1.354v5.008h-2.12V24.041c0-1.02-0.027-2.063-0.079-3.137h1.865l0.118,1.514h0.04
				c0.707-1.142,1.779-1.71,3.221-1.71c1.125,0,2.065,0.444,2.82,1.334C74.026,22.934,74.404,24.105,74.404,25.559z M72.243,25.637
				c0-0.93-0.21-1.695-0.628-2.298c-0.46-0.629-1.073-0.943-1.846-0.943c-0.523,0-0.998,0.176-1.424,0.521
				c-0.426,0.348-0.703,0.802-0.833,1.365c-0.067,0.264-0.099,0.478-0.099,0.647v1.592c0,0.693,0.214,1.279,0.636,1.757
				c0.426,0.478,0.979,0.718,1.661,0.718c0.8,0,1.422-0.31,1.865-0.922C72.02,27.456,72.243,26.645,72.243,25.637z"/>
			<path fill="#FFFFFF" d="M86.677,26.736c0,1.127-0.393,2.041-1.176,2.749c-0.861,0.771-2.063,1.159-3.607,1.159
				c-1.423,0-2.565-0.275-3.426-0.825l0.491-1.768c0.93,0.55,1.951,0.825,3.062,0.825c0.8,0,1.422-0.18,1.865-0.539
				c0.445-0.36,0.67-0.842,0.67-1.443c0-0.538-0.186-0.988-0.552-1.354c-0.367-0.367-0.974-0.709-1.825-1.021
				c-2.318-0.865-3.479-2.129-3.479-3.792c0-1.086,0.411-1.975,1.229-2.669c0.817-0.694,1.901-1.042,3.25-1.042
				c1.205,0,2.207,0.21,3.005,0.629l-0.533,1.729c-0.75-0.405-1.596-0.608-2.543-0.608c-0.747,0-1.334,0.184-1.754,0.55
				c-0.353,0.326-0.531,0.727-0.531,1.198c0,0.523,0.202,0.957,0.609,1.297c0.354,0.312,0.995,0.654,1.922,1.021
				c1.142,0.458,1.978,0.994,2.514,1.608C86.408,25.055,86.677,25.82,86.677,26.736z"/>
			<path fill="#FFFFFF" d="M93.707,22.494H91.37v4.636c0,1.178,0.412,1.766,1.237,1.766c0.378,0,0.693-0.032,0.941-0.098
				l0.059,1.609c-0.418,0.157-0.968,0.235-1.649,0.235c-0.836,0-1.491-0.254-1.964-0.766c-0.47-0.512-0.707-1.367-0.707-2.573
				v-4.811h-1.394v-1.591h1.394v-1.748l2.083-0.629v2.377h2.336V22.494z"/>
			<path fill="#FFFFFF" d="M104.231,25.597c0,1.468-0.421,2.671-1.256,3.614c-0.876,0.97-2.042,1.452-3.496,1.452
				c-1.403,0-2.518-0.464-3.348-1.394c-0.833-0.928-1.247-2.102-1.247-3.515c0-1.479,0.428-2.689,1.285-3.633
				c0.859-0.943,2.014-1.412,3.467-1.412c1.401,0,2.525,0.464,3.377,1.394C103.827,23.006,104.231,24.169,104.231,25.597z
				 M102.032,25.646c0-0.874-0.189-1.625-0.569-2.253c-0.445-0.756-1.081-1.136-1.905-1.136c-0.85,0-1.501,0.38-1.944,1.136
				c-0.38,0.628-0.569,1.392-0.569,2.293c0,0.874,0.189,1.627,0.569,2.251c0.458,0.758,1.098,1.138,1.926,1.138
				c0.81,0,1.445-0.388,1.905-1.157C101.837,27.276,102.032,26.522,102.032,25.646z"/>
			<path fill="#FFFFFF" d="M111.127,22.77c-0.21-0.04-0.436-0.06-0.668-0.06c-0.746,0-1.323,0.281-1.729,0.846
				c-0.353,0.497-0.529,1.127-0.529,1.885v5.008h-2.121v-6.539c0-1.1-0.021-2.102-0.061-3.005h1.848l0.076,1.827h0.059
				c0.224-0.628,0.577-1.134,1.059-1.512c0.474-0.342,0.984-0.512,1.534-0.512c0.197,0,0.374,0.013,0.531,0.04v2.021H111.127z"/>
			<path fill="#FFFFFF" d="M120.609,25.225c0,0.38-0.025,0.7-0.079,0.962h-6.359c0.023,0.943,0.332,1.665,0.922,2.161
				c0.537,0.445,1.229,0.666,2.081,0.666c0.941,0,1.8-0.148,2.573-0.45l0.333,1.472c-0.903,0.394-1.97,0.59-3.2,0.59
				c-1.479,0-2.642-0.435-3.486-1.306c-0.843-0.87-1.267-2.041-1.267-3.505c0-1.439,0.393-2.639,1.18-3.593
				c0.823-1.021,1.936-1.531,3.336-1.531c1.375,0,2.417,0.51,3.124,1.531C120.329,23.031,120.609,24.033,120.609,25.225z
				 M118.587,24.675c0.015-0.63-0.124-1.172-0.412-1.631c-0.367-0.59-0.932-0.884-1.689-0.884c-0.693,0-1.256,0.287-1.688,0.865
				c-0.353,0.458-0.563,1.008-0.626,1.647h4.416V24.675z"/>
		</g>
		<g>
			<g>
				<path fill="#FFFFFF" d="M44.081,12.533c-0.59,0-1.1-0.028-1.524-0.078V6.056c0.55-0.086,1.147-0.136,1.795-0.136
					c2.432,0,3.552,1.197,3.552,3.147C47.903,11.317,46.58,12.533,44.081,12.533z M44.437,6.741c-0.329,0-0.608,0.02-0.839,0.067
					v4.865c0.125,0.02,0.366,0.028,0.704,0.028c1.593,0,2.5-0.906,2.5-2.605C46.801,7.582,45.981,6.741,44.437,6.741z"/>
				<path fill="#FFFFFF" d="M51.393,12.581c-1.37,0-2.258-1.023-2.258-2.412c0-1.448,0.907-2.481,2.336-2.481
					c1.351,0,2.259,0.976,2.259,2.404C53.729,11.558,52.793,12.581,51.393,12.581z M51.433,8.449c-0.753,0-1.236,0.705-1.236,1.689
					c0,0.967,0.493,1.67,1.226,1.67c0.733,0,1.226-0.753,1.226-1.69C52.648,9.163,52.166,8.449,51.433,8.449z"/>
				<path fill="#FFFFFF" d="M61.544,7.784l-1.467,4.69h-0.956l-0.607-2.037c-0.154-0.511-0.28-1.013-0.377-1.515h-0.02
					c-0.077,0.512-0.222,1.023-0.376,1.515l-0.646,2.037h-0.965l-1.381-4.69h1.072l0.531,2.23c0.125,0.531,0.23,1.032,0.319,1.506
					h0.02c0.076-0.395,0.202-0.889,0.386-1.496l0.666-2.239h0.85l0.637,2.191c0.155,0.531,0.28,1.052,0.377,1.545h0.028
					c0.067-0.482,0.173-0.995,0.317-1.545l0.571-2.191L61.544,7.784L61.544,7.784z"/>
				<path fill="#FFFFFF" d="M66.945,12.475h-1.043V9.782c0-0.831-0.318-1.246-0.945-1.246c-0.618,0-1.043,0.531-1.043,1.148v2.79
					h-1.042v-3.35c0-0.414-0.009-0.858-0.039-1.342h0.917l0.049,0.724h0.028c0.281-0.5,0.85-0.819,1.487-0.819
					c0.984,0,1.63,0.754,1.63,1.979V12.475L66.945,12.475z"/>
				<path fill="#FFFFFF" d="M69.818,12.475h-1.042V5.632h1.042V12.475z"/>
				<path fill="#FFFFFF" d="M73.62,12.581c-1.369,0-2.259-1.023-2.259-2.412c0-1.448,0.907-2.481,2.335-2.481
					c1.354,0,2.26,0.976,2.26,2.404C75.956,11.558,75.019,12.581,73.62,12.581z M73.658,8.449c-0.752,0-1.235,0.705-1.235,1.689
					c0,0.967,0.495,1.67,1.226,1.67c0.735,0,1.226-0.753,1.226-1.69C74.874,9.163,74.393,8.449,73.658,8.449z"/>
				<path fill="#FFFFFF" d="M80.064,12.475l-0.077-0.539h-0.028c-0.319,0.435-0.783,0.646-1.371,0.646
					c-0.84,0-1.438-0.588-1.438-1.381c0-1.156,1.004-1.756,2.741-1.756V9.358c0-0.619-0.329-0.928-0.976-0.928
					c-0.462,0-0.867,0.116-1.226,0.349l-0.212-0.686c0.434-0.271,0.976-0.406,1.611-0.406c1.226,0,1.844,0.647,1.844,1.94v1.729
					c0,0.473,0.019,0.84,0.067,1.119L80.064,12.475L80.064,12.475z M79.921,10.139c-1.157,0-1.739,0.281-1.739,0.945
					c0,0.492,0.3,0.733,0.716,0.733c0.531,0,1.023-0.405,1.023-0.955V10.139z"/>
				<path fill="#FFFFFF" d="M85.998,12.475l-0.047-0.753h-0.029c-0.3,0.569-0.804,0.859-1.506,0.859
					c-1.13,0-1.968-0.995-1.968-2.395c0-1.466,0.869-2.499,2.054-2.499c0.626,0,1.071,0.211,1.323,0.637h0.019V5.632h1.044v5.579
					c0,0.453,0.01,0.877,0.039,1.264H85.998z M85.843,9.715c0-0.656-0.434-1.216-1.098-1.216c-0.773,0-1.245,0.686-1.245,1.649
					c0,0.946,0.491,1.594,1.224,1.594c0.657,0,1.119-0.57,1.119-1.246V9.715z"/>
				<path fill="#FFFFFF" d="M93.502,12.581c-1.369,0-2.257-1.023-2.257-2.412c0-1.448,0.907-2.481,2.335-2.481
					c1.352,0,2.258,0.976,2.258,2.404C95.839,11.558,94.904,12.581,93.502,12.581z M93.541,8.449c-0.75,0-1.233,0.705-1.233,1.689
					c0,0.967,0.493,1.67,1.224,1.67c0.735,0,1.226-0.753,1.226-1.69C94.758,9.163,94.275,8.449,93.541,8.449z"/>
				<path fill="#FFFFFF" d="M101.444,12.475H100.4V9.782c0-0.831-0.319-1.246-0.945-1.246c-0.618,0-1.042,0.531-1.042,1.148v2.79
					H97.37v-3.35c0-0.414-0.01-0.858-0.038-1.342h0.917l0.047,0.724h0.031c0.279-0.5,0.848-0.819,1.485-0.819
					c0.985,0,1.632,0.753,1.632,1.979V12.475z"/>
				<path fill="#FFFFFF" d="M108.456,8.566h-1.147v2.277c0,0.58,0.201,0.869,0.607,0.869c0.184,0,0.338-0.02,0.462-0.049l0.03,0.793
					c-0.202,0.077-0.473,0.116-0.809,0.116c-0.823,0-1.313-0.454-1.313-1.642V8.566H105.6V7.784h0.686V6.925l1.023-0.309v1.167
					h1.147V8.566z"/>
				<path fill="#FFFFFF" d="M113.975,12.475h-1.042V9.801c0-0.839-0.317-1.264-0.945-1.264c-0.54,0-1.044,0.367-1.044,1.109v2.828
					h-1.041V5.632h1.041v2.817h0.021c0.329-0.511,0.804-0.762,1.411-0.762c0.993,0,1.6,0.771,1.6,1.997V12.475z"/>
				<path fill="#FFFFFF" d="M119.628,10.381h-3.127c0.019,0.888,0.607,1.389,1.478,1.389c0.462,0,0.888-0.077,1.264-0.222
					l0.163,0.724c-0.445,0.192-0.966,0.29-1.573,0.29c-1.468,0-2.335-0.928-2.335-2.364c0-1.438,0.888-2.519,2.218-2.519
					c1.197,0,1.949,0.888,1.949,2.229C119.666,10.092,119.659,10.256,119.628,10.381z M118.671,9.637
					c0-0.724-0.364-1.235-1.031-1.235c-0.6,0-1.073,0.521-1.14,1.235H118.671z"/>
			</g>
		</g>
	</g>
	<g>
		<rect x="247" width="146" height="38"/>
		<g>
			<g id="bag_1_">
				<g id="handles_1_">
					<path fill="#FFFFFF" d="M265.354,8.124c-1.097,0.385-1.9,0.715-1.9,2.814v1.007l0.657-0.132v-0.87
						c-0.016-1.423,0.354-1.721,1.314-2.136C265.42,8.539,265.397,8.311,265.354,8.124z"/>
					<path fill="#FFFFFF" d="M267.267,7.675c0.045,0.203,0.078,0.424,0.102,0.662c1.718-0.247,1.687,0.462,1.687,1.942v0.546
						l0.65-0.134v-0.412C269.707,7.98,269.347,7.364,267.267,7.675z"/>
					<path fill="#FFFFFF" d="M260.493,12.539V9.515c-0.022-1.874,0.946-2.448,2.731-2.865c2.691-0.631,2.862,1.103,2.862,2.206
						v2.563l0.659-0.132V8.912c-0.007-2.088-0.658-3.651-3.65-2.973c-1.613,0.365-3.261,0.776-3.261,3.513v3.217L260.493,12.539z"/>
				</g>
				<path fill="#FFFFFF" d="M272.998,10.83l-18.099,3.618v13.165l18.099,3.621l3.619-1.317V12.146L272.998,10.83z M262.846,24.89
					l-4.055-0.566V20.93h4.055V24.89z M262.846,20.627h-4.055v-3.208l4.055-0.565V20.627z M268.372,25.662l-5.226-0.742v-3.99h5.226
					V25.662z M268.372,20.627h-5.226v-3.806l5.226-0.74V20.627z"/>
			</g>
		</g>
		<g>
			<g>
				<path fill="#FFFFFF" d="M284.06,9.673c0.551-0.083,1.206-0.146,1.922-0.146c1.299,0,2.224,0.302,2.837,0.873
					c0.624,0.571,0.987,1.382,0.987,2.515c0,1.143-0.354,2.078-1.008,2.723c-0.655,0.654-1.735,1.008-3.097,1.008
					c-0.645,0-1.185-0.031-1.642-0.083V9.673z M284.964,15.866c0.229,0.041,0.561,0.052,0.915,0.052
					c1.933,0,2.982-1.081,2.982-2.972c0.011-1.652-0.925-2.702-2.836-2.702c-0.468,0-0.821,0.042-1.06,0.094V15.866z"/>
				<path fill="#FFFFFF" d="M295.572,14.026c0,1.86-1.289,2.671-2.504,2.671c-1.361,0-2.411-0.997-2.411-2.587
					c0-1.684,1.102-2.671,2.494-2.671C294.595,11.439,295.572,12.489,295.572,14.026z M291.582,14.079
					c0,1.102,0.634,1.933,1.527,1.933c0.873,0,1.527-0.821,1.527-1.954c0-0.852-0.426-1.933-1.506-1.933
					C292.049,12.125,291.582,13.123,291.582,14.079z"/>
				<path fill="#FFFFFF" d="M296.995,11.554l0.665,2.557c0.146,0.561,0.281,1.08,0.374,1.6h0.031c0.114-0.509,0.281-1.05,0.447-1.59
					l0.821-2.566h0.769l0.78,2.515c0.187,0.603,0.333,1.133,0.447,1.642h0.031c0.083-0.509,0.218-1.039,0.385-1.631l0.717-2.525
					h0.904l-1.621,5.029h-0.832l-0.769-2.4c-0.177-0.562-0.322-1.06-0.447-1.652h-0.021c-0.125,0.603-0.281,1.122-0.457,1.663
					l-0.811,2.39h-0.832l-1.517-5.029H296.995z"/>
				<path fill="#FFFFFF" d="M304.319,12.915c0-0.52-0.011-0.945-0.042-1.361h0.811l0.052,0.831h0.021
					c0.25-0.478,0.832-0.945,1.663-0.945c0.696,0,1.777,0.416,1.777,2.141v3.003h-0.914v-2.899c0-0.811-0.301-1.485-1.164-1.485
					c-0.603,0-1.07,0.426-1.226,0.935c-0.042,0.114-0.062,0.271-0.062,0.427v3.023h-0.914V12.915z"/>
				<path fill="#FFFFFF" d="M310.053,9.205h0.914v7.378h-0.914V9.205z"/>
				<path fill="#FFFFFF" d="M317.066,14.026c0,1.86-1.289,2.671-2.504,2.671c-1.361,0-2.411-0.997-2.411-2.587
					c0-1.684,1.101-2.671,2.494-2.671C316.089,11.439,317.066,12.489,317.066,14.026z M313.076,14.079
					c0,1.102,0.634,1.933,1.527,1.933c0.873,0,1.527-0.821,1.527-1.954c0-0.852-0.426-1.933-1.506-1.933
					C313.543,12.125,313.076,13.123,313.076,14.079z"/>
				<path fill="#FFFFFF" d="M321.048,16.583l-0.073-0.634h-0.031c-0.28,0.395-0.821,0.748-1.538,0.748
					c-1.018,0-1.538-0.717-1.538-1.444c0-1.216,1.081-1.881,3.024-1.87v-0.104c0-0.415-0.114-1.163-1.143-1.163
					c-0.468,0-0.956,0.146-1.31,0.374l-0.208-0.604c0.416-0.27,1.018-0.446,1.652-0.446c1.538,0,1.912,1.05,1.912,2.058v1.881
					c0,0.437,0.021,0.862,0.083,1.205H321.048z M320.913,14.017c-0.998-0.021-2.13,0.155-2.13,1.133
					c0,0.592,0.395,0.872,0.862,0.872c0.655,0,1.07-0.415,1.216-0.841c0.031-0.094,0.052-0.198,0.052-0.291V14.017z"/>
				<path fill="#FFFFFF" d="M327.629,9.205v6.079c0,0.446,0.01,0.956,0.042,1.299h-0.821l-0.042-0.873h-0.021
					c-0.28,0.562-0.894,0.987-1.714,0.987c-1.216,0-2.151-1.028-2.151-2.557c-0.011-1.673,1.029-2.701,2.255-2.701
					c0.769,0,1.289,0.363,1.517,0.769h0.021V9.205H327.629z M326.715,13.601c0-0.114-0.01-0.271-0.042-0.385
					c-0.135-0.581-0.634-1.06-1.319-1.06c-0.946,0-1.507,0.831-1.507,1.943c0,1.019,0.499,1.86,1.486,1.86
					c0.613,0,1.174-0.405,1.34-1.092c0.031-0.124,0.042-0.249,0.042-0.395V13.601z"/>
				<path fill="#FFFFFF" d="M331.447,16.583V12.25h-0.707v-0.696h0.707v-0.239c0-0.706,0.156-1.351,0.582-1.756
					c0.343-0.333,0.8-0.468,1.226-0.468c0.322,0,0.603,0.073,0.779,0.146l-0.125,0.707c-0.135-0.062-0.322-0.114-0.582-0.114
					c-0.779,0-0.977,0.686-0.977,1.454v0.271h1.215v0.696h-1.215v4.333H331.447z"/>
				<path fill="#FFFFFF" d="M334.455,13.123c0-0.593-0.011-1.102-0.042-1.569h0.8l0.031,0.987h0.042
					c0.229-0.676,0.779-1.102,1.393-1.102c0.104,0,0.176,0.011,0.26,0.031v0.862c-0.094-0.021-0.187-0.031-0.312-0.031
					c-0.644,0-1.102,0.488-1.226,1.174c-0.021,0.125-0.042,0.271-0.042,0.427v2.681h-0.904V13.123z"/>
				<path fill="#FFFFFF" d="M342.355,14.026c0,1.86-1.289,2.671-2.504,2.671c-1.361,0-2.411-0.997-2.411-2.587
					c0-1.684,1.102-2.671,2.494-2.671C341.378,11.439,342.355,12.489,342.355,14.026z M338.365,14.079
					c0,1.102,0.634,1.933,1.527,1.933c0.873,0,1.527-0.821,1.527-1.954c0-0.852-0.426-1.933-1.506-1.933
					C338.832,12.125,338.365,13.123,338.365,14.079z"/>
				<path fill="#FFFFFF" d="M343.519,12.915c0-0.52-0.011-0.945-0.042-1.361h0.8l0.042,0.811h0.031
					c0.281-0.479,0.748-0.925,1.58-0.925c0.686,0,1.205,0.416,1.423,1.008h0.021c0.156-0.28,0.353-0.499,0.561-0.654
					c0.301-0.229,0.634-0.354,1.112-0.354c0.665,0,1.652,0.437,1.652,2.182v2.962h-0.894v-2.848c0-0.966-0.354-1.548-1.091-1.548
					c-0.52,0-0.925,0.385-1.081,0.831c-0.042,0.125-0.073,0.291-0.073,0.457v3.107h-0.894v-3.014c0-0.8-0.354-1.382-1.05-1.382
					c-0.571,0-0.987,0.457-1.132,0.914c-0.052,0.136-0.073,0.291-0.073,0.447v3.034h-0.894V12.915z"/>
				<path fill="#FFFFFF" d="M285.203,29.488l-1.777-7.004h0.956l0.832,3.544c0.208,0.872,0.395,1.745,0.52,2.421h0.021
					c0.114-0.696,0.333-1.527,0.572-2.432l0.935-3.533h0.946l0.852,3.554c0.197,0.832,0.384,1.663,0.488,2.4h0.021
					c0.146-0.769,0.343-1.548,0.562-2.421l0.925-3.533h0.925l-1.985,7.004h-0.946l-0.883-3.647
					c-0.218-0.894-0.363-1.579-0.457-2.286h-0.021c-0.125,0.696-0.281,1.382-0.541,2.286l-0.998,3.647H285.203z"/>
				<path fill="#FFFFFF" d="M293.903,23.046c0.01,0.312-0.218,0.561-0.582,0.561c-0.322,0-0.551-0.249-0.551-0.561
					c0-0.322,0.239-0.571,0.572-0.571C293.685,22.475,293.903,22.724,293.903,23.046z M292.885,29.488v-5.029h0.914v5.029H292.885z"
					/>
				<path fill="#FFFFFF" d="M295.267,25.82c0-0.52-0.011-0.945-0.042-1.361h0.811l0.052,0.831h0.021
					c0.25-0.478,0.832-0.945,1.663-0.945c0.696,0,1.777,0.416,1.777,2.141v3.003h-0.914v-2.899c0-0.811-0.302-1.485-1.164-1.485
					c-0.603,0-1.07,0.426-1.226,0.935c-0.042,0.114-0.062,0.271-0.062,0.427v3.023h-0.914V25.82z"/>
				<path fill="#FFFFFF" d="M305.387,22.11v6.079c0,0.446,0.01,0.956,0.042,1.299h-0.821l-0.042-0.873h-0.021
					c-0.28,0.562-0.894,0.987-1.714,0.987c-1.216,0-2.151-1.028-2.151-2.557c-0.011-1.673,1.029-2.701,2.255-2.701
					c0.769,0,1.289,0.363,1.517,0.769h0.021V22.11H305.387z M304.473,26.506c0-0.114-0.01-0.271-0.042-0.385
					c-0.135-0.581-0.634-1.06-1.319-1.06c-0.946,0-1.507,0.831-1.507,1.943c0,1.019,0.499,1.86,1.486,1.86
					c0.613,0,1.174-0.405,1.34-1.092c0.031-0.124,0.042-0.249,0.042-0.395V26.506z"/>
				<path fill="#FFFFFF" d="M311.466,26.932c0,1.86-1.289,2.671-2.504,2.671c-1.361,0-2.411-0.997-2.411-2.587
					c0-1.684,1.102-2.671,2.494-2.671C310.489,24.345,311.466,25.395,311.466,26.932z M307.476,26.984
					c0,1.102,0.634,1.933,1.527,1.933c0.873,0,1.527-0.821,1.527-1.954c0-0.852-0.426-1.933-1.506-1.933
					C307.943,25.03,307.476,26.028,307.476,26.984z"/>
				<path fill="#FFFFFF" d="M312.889,24.459l0.665,2.557c0.146,0.561,0.281,1.08,0.374,1.6h0.031c0.114-0.509,0.281-1.05,0.447-1.59
					l0.821-2.566h0.769l0.78,2.515c0.187,0.603,0.333,1.133,0.447,1.642h0.031c0.083-0.509,0.218-1.039,0.385-1.631l0.717-2.525
					h0.904l-1.621,5.029h-0.832l-0.769-2.4c-0.177-0.562-0.322-1.06-0.447-1.652h-0.021c-0.125,0.603-0.281,1.122-0.457,1.663
					l-0.811,2.39h-0.832l-1.517-5.029H312.889z"/>
				<path fill="#FFFFFF" d="M320.022,28.553c0.27,0.177,0.748,0.364,1.206,0.364c0.665,0,0.977-0.333,0.977-0.748
					c0-0.437-0.26-0.676-0.935-0.925c-0.904-0.322-1.33-0.821-1.33-1.424c0-0.811,0.655-1.476,1.735-1.476
					c0.509,0,0.956,0.146,1.236,0.312l-0.229,0.665c-0.197-0.125-0.561-0.291-1.029-0.291c-0.54,0-0.841,0.312-0.841,0.686
					c0,0.416,0.301,0.604,0.956,0.853c0.873,0.332,1.32,0.769,1.32,1.518c0,0.883-0.686,1.506-1.881,1.506
					c-0.551,0-1.06-0.135-1.413-0.343L320.022,28.553z"/>
				<path fill="#FFFFFF" d="M326.5,22.567c0.437-0.072,1.008-0.135,1.735-0.135c0.894,0,1.548,0.208,1.964,0.582
					c0.385,0.332,0.613,0.842,0.613,1.465c0,0.634-0.187,1.133-0.541,1.496c-0.478,0.51-1.257,0.77-2.14,0.77
					c-0.271,0-0.52-0.011-0.728-0.062v2.806H326.5V22.567z M327.404,25.945c0.197,0.052,0.447,0.072,0.748,0.072
					c1.091,0,1.756-0.53,1.756-1.496c0-0.925-0.655-1.372-1.652-1.372c-0.395,0-0.696,0.031-0.852,0.073V25.945z"/>
				<path fill="#FFFFFF" d="M331.862,22.11h0.914v3.139h0.021c0.146-0.26,0.374-0.488,0.655-0.645c0.27-0.156,0.592-0.26,0.935-0.26
					c0.675,0,1.756,0.416,1.756,2.15v2.993h-0.914V26.6c0-0.811-0.302-1.496-1.164-1.496c-0.592,0-1.06,0.415-1.226,0.914
					c-0.052,0.125-0.062,0.26-0.062,0.437v3.034h-0.914V22.11z"/>
				<path fill="#FFFFFF" d="M342.184,26.932c0,1.86-1.289,2.671-2.504,2.671c-1.361,0-2.411-0.997-2.411-2.587
					c0-1.684,1.101-2.671,2.494-2.671C341.207,24.345,342.184,25.395,342.184,26.932z M338.193,26.984
					c0,1.102,0.634,1.933,1.527,1.933c0.873,0,1.527-0.821,1.527-1.954c0-0.852-0.426-1.933-1.506-1.933
					C338.661,25.03,338.193,26.028,338.193,26.984z"/>
				<path fill="#FFFFFF" d="M343.347,25.82c0-0.52-0.011-0.945-0.042-1.361h0.811l0.052,0.831h0.021
					c0.25-0.478,0.832-0.945,1.663-0.945c0.696,0,1.777,0.416,1.777,2.141v3.003h-0.914v-2.899c0-0.811-0.301-1.485-1.164-1.485
					c-0.603,0-1.07,0.426-1.226,0.935c-0.042,0.114-0.062,0.271-0.062,0.427v3.023h-0.914V25.82z"/>
				<path fill="#FFFFFF" d="M349.645,27.14c0.021,1.236,0.811,1.746,1.725,1.746c0.655,0,1.049-0.114,1.393-0.26l0.156,0.654
					c-0.322,0.146-0.873,0.312-1.673,0.312c-1.548,0-2.473-1.018-2.473-2.535c0-1.517,0.894-2.712,2.359-2.712
					c1.642,0,2.078,1.444,2.078,2.369c0,0.187-0.021,0.332-0.031,0.426H349.645z M352.326,26.485
					c0.01-0.582-0.239-1.486-1.268-1.486c-0.925,0-1.33,0.853-1.403,1.486H352.326z"/>
				<path fill="#FFFFFF" d="M356.455,28.387c0.405,0.249,0.998,0.457,1.621,0.457c0.925,0,1.465-0.488,1.465-1.194
					c0-0.655-0.375-1.029-1.32-1.393c-1.143-0.405-1.85-0.998-1.85-1.985c0-1.091,0.904-1.901,2.265-1.901
					c0.717,0,1.237,0.166,1.548,0.343l-0.25,0.738c-0.229-0.125-0.696-0.333-1.33-0.333c-0.956,0-1.32,0.572-1.32,1.05
					c0,0.654,0.426,0.977,1.393,1.351c1.185,0.457,1.788,1.029,1.788,2.058c0,1.081-0.8,2.016-2.453,2.016
					c-0.675,0-1.413-0.197-1.787-0.446L356.455,28.387z"/>
				<path fill="#FFFFFF" d="M362.58,23.015v1.444h1.31v0.696h-1.31v2.712c0,0.624,0.177,0.977,0.686,0.977
					c0.239,0,0.416-0.031,0.53-0.062l0.042,0.687c-0.176,0.072-0.457,0.124-0.811,0.124c-0.426,0-0.769-0.135-0.987-0.384
					c-0.26-0.271-0.354-0.717-0.354-1.31v-2.743h-0.779v-0.696h0.779v-1.205L362.58,23.015z"/>
				<path fill="#FFFFFF" d="M369.365,26.932c0,1.86-1.289,2.671-2.504,2.671c-1.361,0-2.411-0.997-2.411-2.587
					c0-1.684,1.101-2.671,2.494-2.671C368.388,24.345,369.365,25.395,369.365,26.932z M365.375,26.984
					c0,1.102,0.634,1.933,1.527,1.933c0.873,0,1.527-0.821,1.527-1.954c0-0.852-0.426-1.933-1.506-1.933
					C365.842,25.03,365.375,26.028,365.375,26.984z"/>
				<path fill="#FFFFFF" d="M370.529,26.028c0-0.593-0.011-1.102-0.042-1.569h0.8l0.031,0.987h0.042
					c0.229-0.676,0.779-1.102,1.393-1.102c0.104,0,0.177,0.011,0.26,0.031v0.862c-0.094-0.021-0.187-0.031-0.312-0.031
					c-0.644,0-1.101,0.488-1.226,1.174c-0.021,0.125-0.042,0.271-0.042,0.427v2.681h-0.904V26.028z"/>
				<path fill="#FFFFFF" d="M374.391,27.14c0.021,1.236,0.811,1.746,1.725,1.746c0.655,0,1.049-0.114,1.393-0.26l0.156,0.654
					c-0.322,0.146-0.873,0.312-1.673,0.312c-1.548,0-2.473-1.018-2.473-2.535c0-1.517,0.894-2.712,2.359-2.712
					c1.642,0,2.078,1.444,2.078,2.369c0,0.187-0.021,0.332-0.031,0.426H374.391z M377.072,26.485
					c0.01-0.582-0.239-1.486-1.268-1.486c-0.925,0-1.33,0.853-1.403,1.486H377.072z"/>
			</g>
		</g>
	</g>
	<g>
		<path fill="#FFFFFF" d="M433.622,7.552c0.579-0.087,1.267-0.152,2.021-0.152c1.366,0,2.338,0.316,2.982,0.917
			c0.656,0.602,1.038,1.453,1.038,2.645c0,1.201-0.372,2.185-1.06,2.862c-0.688,0.688-1.824,1.06-3.255,1.06
			c-0.677,0-1.246-0.032-1.726-0.087V7.552z M434.572,14.063c0.24,0.044,0.59,0.055,0.961,0.055c2.032,0,3.136-1.137,3.136-3.125
			c0.011-1.736-0.973-2.84-2.983-2.84c-0.491,0-0.863,0.043-1.114,0.098V14.063z"/>
		<path fill="#FFFFFF" d="M445.698,12.13c0,1.955-1.355,2.808-2.633,2.808c-1.431,0-2.535-1.049-2.535-2.721
			c0-1.77,1.158-2.808,2.622-2.808C444.671,9.409,445.698,10.513,445.698,12.13z M441.503,12.185c0,1.158,0.666,2.032,1.606,2.032
			c0.917,0,1.606-0.863,1.606-2.055c0-0.896-0.448-2.031-1.584-2.031C441.994,10.131,441.503,11.18,441.503,12.185z"/>
		<path fill="#FFFFFF" d="M447.167,9.529l0.699,2.688c0.153,0.591,0.295,1.137,0.394,1.683h0.033c0.12-0.535,0.295-1.104,0.47-1.671
			l0.863-2.699h0.809l0.819,2.645c0.197,0.634,0.35,1.19,0.47,1.726h0.033c0.087-0.535,0.229-1.092,0.404-1.715l0.754-2.655h0.95
			l-1.704,5.288h-0.874l-0.809-2.523c-0.186-0.59-0.339-1.114-0.47-1.737h-0.022c-0.131,0.634-0.295,1.18-0.48,1.748l-0.852,2.513
			h-0.874l-1.595-5.288H447.167z"/>
		<path fill="#FFFFFF" d="M454.574,10.961c0-0.547-0.011-0.994-0.043-1.432h0.852l0.055,0.874h0.022
			c0.262-0.502,0.874-0.994,1.748-0.994c0.732,0,1.868,0.438,1.868,2.251v3.157h-0.961V11.77c0-0.853-0.317-1.562-1.224-1.562
			c-0.634,0-1.125,0.448-1.289,0.983c-0.044,0.12-0.066,0.284-0.066,0.447v3.18h-0.961V10.961z"/>
		<path fill="#FFFFFF" d="M460.561,7.061h0.961v7.757h-0.961V7.061z"/>
		<path fill="#FFFFFF" d="M467.91,12.13c0,1.955-1.355,2.808-2.633,2.808c-1.431,0-2.535-1.049-2.535-2.721
			c0-1.77,1.158-2.808,2.622-2.808C466.882,9.409,467.91,10.513,467.91,12.13z M463.714,12.185c0,1.158,0.667,2.032,1.606,2.032
			c0.917,0,1.606-0.863,1.606-2.055c0-0.896-0.448-2.031-1.584-2.031C464.206,10.131,463.714,11.18,463.714,12.185z"/>
		<path fill="#FFFFFF" d="M472.069,14.817l-0.077-0.666h-0.033c-0.295,0.415-0.863,0.786-1.617,0.786
			c-1.071,0-1.617-0.754-1.617-1.519c0-1.278,1.136-1.978,3.179-1.967v-0.109c0-0.437-0.12-1.224-1.202-1.224
			c-0.492,0-1.005,0.153-1.376,0.394l-0.219-0.634c0.437-0.284,1.071-0.47,1.737-0.47c1.617,0,2.01,1.104,2.01,2.163v1.978
			c0,0.459,0.022,0.907,0.087,1.268H472.069z M471.927,12.119c-1.049-0.022-2.24,0.163-2.24,1.19c0,0.623,0.415,0.918,0.907,0.918
			c0.688,0,1.125-0.438,1.278-0.885c0.033-0.099,0.055-0.208,0.055-0.307V12.119z"/>
		<path fill="#FFFFFF" d="M478.974,7.061v6.392c0,0.47,0.011,1.005,0.044,1.365h-0.863l-0.044-0.918h-0.021
			c-0.295,0.59-0.939,1.038-1.803,1.038c-1.278,0-2.262-1.081-2.262-2.688c-0.011-1.759,1.082-2.841,2.371-2.841
			c0.808,0,1.354,0.383,1.595,0.809h0.022V7.061H478.974z M478.012,11.682c0-0.12-0.011-0.284-0.043-0.404
			c-0.142-0.611-0.667-1.114-1.388-1.114c-0.994,0-1.584,0.874-1.584,2.043c0,1.071,0.524,1.956,1.562,1.956
			c0.645,0,1.235-0.427,1.41-1.147c0.033-0.131,0.043-0.262,0.043-0.415V11.682z"/>
		<path fill="#FFFFFF" d="M482.764,14.817v-4.556h-0.743V9.529h0.743V9.278c0-0.743,0.164-1.42,0.612-1.847
			c0.36-0.35,0.841-0.491,1.289-0.491c0.339,0,0.634,0.076,0.819,0.152l-0.131,0.743c-0.142-0.065-0.339-0.12-0.612-0.12
			c-0.82,0-1.027,0.721-1.027,1.529v0.284h1.278v0.732h-1.278v4.556H482.764z"/>
		<path fill="#FFFFFF" d="M485.901,11.18c0-0.623-0.011-1.158-0.043-1.65h0.841l0.033,1.038h0.043
			c0.241-0.71,0.819-1.158,1.464-1.158c0.109,0,0.186,0.011,0.273,0.033v0.906c-0.098-0.021-0.197-0.032-0.328-0.032
			c-0.677,0-1.158,0.514-1.29,1.234c-0.021,0.131-0.043,0.284-0.043,0.448v2.818h-0.951V11.18z"/>
		<path fill="#FFFFFF" d="M494.052,12.13c0,1.955-1.355,2.808-2.633,2.808c-1.431,0-2.535-1.049-2.535-2.721
			c0-1.77,1.158-2.808,2.622-2.808C493.024,9.409,494.052,10.513,494.052,12.13z M489.856,12.185c0,1.158,0.666,2.032,1.606,2.032
			c0.917,0,1.606-0.863,1.606-2.055c0-0.896-0.448-2.031-1.584-2.031C490.348,10.131,489.856,11.18,489.856,12.185z"/>
		<path fill="#FFFFFF" d="M495.249,10.961c0-0.547-0.011-0.994-0.043-1.432h0.841l0.043,0.853h0.033
			c0.295-0.503,0.787-0.973,1.661-0.973c0.721,0,1.268,0.438,1.497,1.06h0.021c0.164-0.295,0.372-0.524,0.59-0.688
			c0.317-0.241,0.667-0.372,1.169-0.372c0.699,0,1.737,0.459,1.737,2.295v3.113h-0.939v-2.993c0-1.017-0.371-1.628-1.147-1.628
			c-0.546,0-0.972,0.404-1.136,0.874c-0.044,0.131-0.077,0.306-0.077,0.48v3.267h-0.939v-3.168c0-0.842-0.372-1.453-1.104-1.453
			c-0.601,0-1.038,0.48-1.191,0.961c-0.055,0.143-0.076,0.306-0.076,0.47v3.19h-0.94V10.961z"/>
		<path fill="#FFFFFF" d="M435.751,32.63l-2.721-10.727h1.464l1.273,5.427c0.318,1.337,0.605,2.674,0.796,3.708h0.032
			c0.175-1.066,0.509-2.339,0.875-3.724l1.432-5.411h1.448l1.305,5.442c0.302,1.273,0.589,2.547,0.748,3.677h0.032
			c0.223-1.178,0.525-2.371,0.859-3.708l1.417-5.411h1.417l-3.04,10.727h-1.448l-1.353-5.586c-0.334-1.369-0.557-2.419-0.7-3.502
			h-0.032c-0.191,1.066-0.43,2.117-0.828,3.502L437.2,32.63H435.751z"/>
		<path fill="#FFFFFF" d="M448.673,22.763c0.016,0.478-0.334,0.859-0.892,0.859c-0.493,0-0.843-0.382-0.843-0.859
			c0-0.493,0.366-0.875,0.875-0.875C448.338,21.888,448.673,22.27,448.673,22.763z M447.113,32.63v-7.703h1.401v7.703H447.113z"/>
		<path fill="#FFFFFF" d="M450.264,27.012c0-0.796-0.016-1.448-0.063-2.085h1.241l0.08,1.273h0.032
			c0.382-0.732,1.273-1.448,2.546-1.448c1.066,0,2.722,0.637,2.722,3.278v4.6h-1.4v-4.44c0-1.241-0.461-2.275-1.783-2.275
			c-0.923,0-1.639,0.652-1.878,1.432c-0.063,0.176-0.095,0.414-0.095,0.653v4.631h-1.401V27.012z"/>
		<path fill="#FFFFFF" d="M465.635,21.33v9.311c0,0.685,0.016,1.464,0.063,1.989h-1.257l-0.063-1.337h-0.032
			c-0.43,0.859-1.369,1.512-2.626,1.512c-1.862,0-3.294-1.575-3.294-3.915c-0.016-2.562,1.575-4.138,3.453-4.138
			c1.178,0,1.974,0.557,2.324,1.178h0.032v-4.6H465.635z M464.234,28.062c0-0.175-0.016-0.414-0.063-0.589
			c-0.207-0.892-0.971-1.623-2.021-1.623c-1.449,0-2.308,1.272-2.308,2.976c0,1.56,0.764,2.849,2.276,2.849
			c0.939,0,1.798-0.62,2.053-1.671c0.048-0.191,0.063-0.382,0.063-0.604V28.062z"/>
		<path fill="#FFFFFF" d="M474.45,28.715c0,2.849-1.973,4.09-3.835,4.09c-2.084,0-3.692-1.527-3.692-3.963
			c0-2.578,1.687-4.09,3.819-4.09C472.955,24.752,474.45,26.359,474.45,28.715z M468.339,28.794c0,1.688,0.971,2.961,2.34,2.961
			c1.337,0,2.339-1.258,2.339-2.992c0-1.305-0.652-2.96-2.308-2.96S468.339,27.33,468.339,28.794z"/>
		<path fill="#FFFFFF" d="M476.247,24.927l1.019,3.915c0.223,0.859,0.43,1.655,0.573,2.451h0.047
			c0.175-0.779,0.43-1.607,0.685-2.435l1.257-3.932h1.178l1.193,3.852c0.287,0.923,0.509,1.735,0.685,2.515h0.048
			c0.127-0.779,0.334-1.592,0.588-2.499l1.098-3.867h1.385l-2.483,7.703h-1.273l-1.178-3.677c-0.271-0.859-0.493-1.623-0.685-2.53
			h-0.032c-0.191,0.923-0.43,1.719-0.7,2.547l-1.241,3.66h-1.273l-2.323-7.703H476.247z"/>
		<path fill="#FFFFFF" d="M487.039,31.197c0.414,0.271,1.146,0.558,1.846,0.558c1.019,0,1.496-0.51,1.496-1.146
			c0-0.668-0.398-1.034-1.433-1.416c-1.384-0.493-2.037-1.258-2.037-2.181c0-1.241,1.003-2.26,2.658-2.26
			c0.78,0,1.464,0.223,1.894,0.478l-0.35,1.019c-0.302-0.191-0.859-0.445-1.576-0.445c-0.827,0-1.289,0.478-1.289,1.05
			c0,0.637,0.462,0.923,1.464,1.306c1.337,0.509,2.021,1.178,2.021,2.323c0,1.353-1.05,2.308-2.88,2.308
			c-0.844,0-1.624-0.207-2.165-0.525L487.039,31.197z"/>
		<path fill="#FFFFFF" d="M496.761,30.943c0.621,0.382,1.528,0.7,2.483,0.7c1.416,0,2.244-0.748,2.244-1.831
			c0-1.002-0.573-1.575-2.021-2.132c-1.75-0.621-2.833-1.528-2.833-3.04c0-1.671,1.385-2.912,3.47-2.912
			c1.098,0,1.894,0.254,2.371,0.524l-0.382,1.131c-0.35-0.191-1.066-0.51-2.037-0.51c-1.464,0-2.021,0.875-2.021,1.607
			c0,1.003,0.653,1.496,2.133,2.069c1.814,0.7,2.737,1.575,2.737,3.15c0,1.655-1.226,3.088-3.756,3.088
			c-1.035,0-2.165-0.303-2.737-0.685L496.761,30.943z"/>
		<path fill="#FFFFFF" d="M506.003,22.715v2.212h2.005v1.066h-2.005v4.154c0,0.955,0.271,1.496,1.05,1.496
			c0.366,0,0.637-0.048,0.812-0.096l0.063,1.05c-0.271,0.111-0.7,0.191-1.241,0.191c-0.653,0-1.178-0.207-1.512-0.589
			c-0.397-0.414-0.541-1.098-0.541-2.005v-4.202h-1.193v-1.066h1.193v-1.846L506.003,22.715z"/>
		<path fill="#FFFFFF" d="M516.263,28.715c0,2.849-1.973,4.09-3.835,4.09c-2.084,0-3.692-1.527-3.692-3.963
			c0-2.578,1.687-4.09,3.819-4.09C514.767,24.752,516.263,26.359,516.263,28.715z M510.151,28.794c0,1.688,0.971,2.961,2.34,2.961
			c1.337,0,2.339-1.258,2.339-2.992c0-1.305-0.652-2.96-2.308-2.96S510.151,27.33,510.151,28.794z"/>
		<path fill="#FFFFFF" d="M517.583,27.33c0-0.907-0.016-1.687-0.063-2.403h1.226l0.047,1.513h0.064
			c0.35-1.035,1.193-1.688,2.132-1.688c0.159,0,0.271,0.016,0.398,0.048v1.321c-0.143-0.032-0.286-0.048-0.478-0.048
			c-0.986,0-1.687,0.748-1.878,1.798c-0.032,0.191-0.063,0.414-0.063,0.652v4.106h-1.385V27.33z"/>
		<path fill="#FFFFFF" d="M523.37,29.033c0.032,1.894,1.242,2.674,2.642,2.674c1.002,0,1.607-0.175,2.133-0.398l0.238,1.003
			c-0.493,0.223-1.336,0.478-2.562,0.478c-2.372,0-3.788-1.56-3.788-3.883c0-2.324,1.369-4.154,3.612-4.154
			c2.515,0,3.183,2.212,3.183,3.629c0,0.286-0.032,0.509-0.048,0.652H523.37z M527.476,28.03c0.016-0.891-0.366-2.275-1.942-2.275
			c-1.417,0-2.037,1.305-2.148,2.275H527.476z"/>
	</g>
	<rect x="394" fill="#00A05E" width="146.3" height="38"/>
	<path fill="#FFFFFF" d="M413.132,7.181c0.047,0.215,0.075,0.474,0.08,0.779c-1.093,0.472-1.514,0.811-1.495,2.43v0.991
		l-0.749,0.151v-1.149C410.968,7.997,411.881,7.621,413.132,7.181 M415.309,6.67c0.049,0.231,0.089,0.483,0.115,0.753
		c1.958-0.28,1.919,0.527,1.919,2.211v0.624l0.741-0.152V9.634C418.084,7.018,417.676,6.316,415.309,6.67 M407.596,12.207V8.766
		c-0.024-2.134,1.077-2.786,3.111-3.263c3.062-0.719,3.257,1.256,3.257,2.513v2.916l0.75-0.151V8.079
		c-0.008-2.378-0.749-4.158-4.156-3.385c-1.836,0.416-3.709,0.885-3.709,4v3.661L407.596,12.207z M416.568,21.253h-5.764v-4.169
		l5.764-0.846V21.253z M416.568,27.146l-5.764-0.842v-4.475h5.764V27.146z M410.23,21.253h-4.572v-3.491l4.572-0.645V21.253z
		 M410.23,26.268l-4.572-0.644v-3.795h4.572V26.268z M421.832,10.263l-20.604,4.12v14.986l20.604,4.119l4.119-1.498V11.762
		L421.832,10.263z"/>
	<g>
		<path fill="#FFFFFF" d="M433.622,7.552c0.579-0.087,1.267-0.152,2.021-0.152c1.366,0,2.338,0.316,2.982,0.917
			c0.656,0.602,1.038,1.453,1.038,2.645c0,1.201-0.372,2.185-1.06,2.862c-0.688,0.688-1.824,1.06-3.255,1.06
			c-0.677,0-1.246-0.032-1.726-0.087V7.552z M434.572,14.063c0.24,0.044,0.59,0.055,0.961,0.055c2.032,0,3.136-1.137,3.136-3.125
			c0.011-1.736-0.973-2.84-2.983-2.84c-0.491,0-0.863,0.043-1.114,0.098V14.063z"/>
		<path fill="#FFFFFF" d="M445.698,12.13c0,1.955-1.355,2.808-2.633,2.808c-1.431,0-2.535-1.049-2.535-2.721
			c0-1.77,1.158-2.808,2.622-2.808C444.671,9.409,445.698,10.513,445.698,12.13z M441.503,12.185c0,1.158,0.666,2.032,1.606,2.032
			c0.917,0,1.606-0.863,1.606-2.055c0-0.896-0.448-2.031-1.584-2.031C441.994,10.131,441.503,11.18,441.503,12.185z"/>
		<path fill="#FFFFFF" d="M447.167,9.529l0.699,2.688c0.153,0.591,0.295,1.137,0.394,1.683h0.033c0.12-0.535,0.295-1.104,0.47-1.671
			l0.863-2.699h0.809l0.819,2.645c0.197,0.634,0.35,1.19,0.47,1.726h0.033c0.087-0.535,0.229-1.092,0.404-1.715l0.754-2.655h0.95
			l-1.704,5.288h-0.874l-0.809-2.523c-0.186-0.59-0.339-1.114-0.47-1.737h-0.022c-0.131,0.634-0.295,1.18-0.48,1.748l-0.852,2.513
			h-0.874l-1.595-5.288H447.167z"/>
		<path fill="#FFFFFF" d="M454.574,10.961c0-0.547-0.011-0.994-0.043-1.432h0.852l0.055,0.874h0.022
			c0.262-0.502,0.874-0.994,1.748-0.994c0.732,0,1.868,0.438,1.868,2.251v3.157h-0.961V11.77c0-0.853-0.317-1.562-1.224-1.562
			c-0.634,0-1.125,0.448-1.289,0.983c-0.044,0.12-0.066,0.284-0.066,0.447v3.18h-0.961V10.961z"/>
		<path fill="#FFFFFF" d="M460.561,7.061h0.961v7.757h-0.961V7.061z"/>
		<path fill="#FFFFFF" d="M467.91,12.13c0,1.955-1.355,2.808-2.633,2.808c-1.431,0-2.535-1.049-2.535-2.721
			c0-1.77,1.158-2.808,2.622-2.808C466.882,9.409,467.91,10.513,467.91,12.13z M463.714,12.185c0,1.158,0.667,2.032,1.606,2.032
			c0.917,0,1.606-0.863,1.606-2.055c0-0.896-0.448-2.031-1.584-2.031C464.206,10.131,463.714,11.18,463.714,12.185z"/>
		<path fill="#FFFFFF" d="M472.069,14.817l-0.077-0.666h-0.033c-0.295,0.415-0.863,0.786-1.617,0.786
			c-1.071,0-1.617-0.754-1.617-1.519c0-1.278,1.136-1.978,3.179-1.967v-0.109c0-0.437-0.12-1.224-1.202-1.224
			c-0.492,0-1.005,0.153-1.376,0.394l-0.219-0.634c0.437-0.284,1.071-0.47,1.737-0.47c1.617,0,2.01,1.104,2.01,2.163v1.978
			c0,0.459,0.022,0.907,0.087,1.268H472.069z M471.927,12.119c-1.049-0.022-2.24,0.163-2.24,1.19c0,0.623,0.415,0.918,0.907,0.918
			c0.688,0,1.125-0.438,1.278-0.885c0.033-0.099,0.055-0.208,0.055-0.307V12.119z"/>
		<path fill="#FFFFFF" d="M478.974,7.061v6.392c0,0.47,0.011,1.005,0.044,1.365h-0.863l-0.044-0.918h-0.021
			c-0.295,0.59-0.939,1.038-1.803,1.038c-1.278,0-2.262-1.081-2.262-2.688c-0.011-1.759,1.082-2.841,2.371-2.841
			c0.808,0,1.354,0.383,1.595,0.809h0.022V7.061H478.974z M478.012,11.682c0-0.12-0.011-0.284-0.043-0.404
			c-0.142-0.611-0.667-1.114-1.388-1.114c-0.994,0-1.584,0.874-1.584,2.043c0,1.071,0.524,1.956,1.562,1.956
			c0.645,0,1.235-0.427,1.41-1.147c0.033-0.131,0.043-0.262,0.043-0.415V11.682z"/>
		<path fill="#FFFFFF" d="M482.764,14.817v-4.556h-0.743V9.529h0.743V9.278c0-0.743,0.164-1.42,0.612-1.847
			c0.36-0.35,0.841-0.491,1.289-0.491c0.339,0,0.634,0.076,0.819,0.152l-0.131,0.743c-0.142-0.065-0.339-0.12-0.612-0.12
			c-0.82,0-1.027,0.721-1.027,1.529v0.284h1.278v0.732h-1.278v4.556H482.764z"/>
		<path fill="#FFFFFF" d="M485.901,11.18c0-0.623-0.011-1.158-0.043-1.65h0.841l0.033,1.038h0.043
			c0.241-0.71,0.819-1.158,1.464-1.158c0.109,0,0.186,0.011,0.273,0.033v0.906c-0.098-0.021-0.197-0.032-0.328-0.032
			c-0.677,0-1.158,0.514-1.29,1.234c-0.021,0.131-0.043,0.284-0.043,0.448v2.818h-0.951V11.18z"/>
		<path fill="#FFFFFF" d="M494.052,12.13c0,1.955-1.355,2.808-2.633,2.808c-1.431,0-2.535-1.049-2.535-2.721
			c0-1.77,1.158-2.808,2.622-2.808C493.024,9.409,494.052,10.513,494.052,12.13z M489.856,12.185c0,1.158,0.666,2.032,1.606,2.032
			c0.917,0,1.606-0.863,1.606-2.055c0-0.896-0.448-2.031-1.584-2.031C490.348,10.131,489.856,11.18,489.856,12.185z"/>
		<path fill="#FFFFFF" d="M495.249,10.961c0-0.547-0.011-0.994-0.043-1.432h0.841l0.043,0.853h0.033
			c0.295-0.503,0.787-0.973,1.661-0.973c0.721,0,1.268,0.438,1.497,1.06h0.021c0.164-0.295,0.372-0.524,0.59-0.688
			c0.317-0.241,0.667-0.372,1.169-0.372c0.699,0,1.737,0.459,1.737,2.295v3.113h-0.939v-2.993c0-1.017-0.371-1.628-1.147-1.628
			c-0.546,0-0.972,0.404-1.136,0.874c-0.044,0.131-0.077,0.306-0.077,0.48v3.267h-0.939v-3.168c0-0.842-0.372-1.453-1.104-1.453
			c-0.601,0-1.038,0.48-1.191,0.961c-0.055,0.143-0.076,0.306-0.076,0.47v3.19h-0.94V10.961z"/>
		<path fill="#FFFFFF" d="M435.751,32.63l-2.721-10.727h1.464l1.273,5.427c0.318,1.337,0.605,2.674,0.796,3.708h0.032
			c0.175-1.066,0.509-2.339,0.875-3.724l1.432-5.411h1.448l1.305,5.442c0.302,1.273,0.589,2.547,0.748,3.677h0.032
			c0.223-1.178,0.525-2.371,0.859-3.708l1.417-5.411h1.417l-3.04,10.727h-1.448l-1.353-5.586c-0.334-1.369-0.557-2.419-0.7-3.502
			h-0.032c-0.191,1.066-0.43,2.117-0.828,3.502L437.2,32.63H435.751z"/>
		<path fill="#FFFFFF" d="M448.673,22.763c0.016,0.478-0.334,0.859-0.892,0.859c-0.493,0-0.843-0.382-0.843-0.859
			c0-0.493,0.366-0.875,0.875-0.875C448.338,21.888,448.673,22.27,448.673,22.763z M447.113,32.63v-7.703h1.401v7.703H447.113z"/>
		<path fill="#FFFFFF" d="M450.264,27.012c0-0.796-0.016-1.448-0.063-2.085h1.241l0.08,1.273h0.032
			c0.382-0.732,1.273-1.448,2.546-1.448c1.066,0,2.722,0.637,2.722,3.278v4.6h-1.4v-4.44c0-1.241-0.461-2.275-1.783-2.275
			c-0.923,0-1.639,0.652-1.878,1.432c-0.063,0.176-0.095,0.414-0.095,0.653v4.631h-1.401V27.012z"/>
		<path fill="#FFFFFF" d="M465.635,21.33v9.311c0,0.685,0.016,1.464,0.063,1.989h-1.257l-0.063-1.337h-0.032
			c-0.43,0.859-1.369,1.512-2.626,1.512c-1.862,0-3.294-1.575-3.294-3.915c-0.016-2.562,1.575-4.138,3.453-4.138
			c1.178,0,1.974,0.557,2.324,1.178h0.032v-4.6H465.635z M464.234,28.062c0-0.175-0.016-0.414-0.063-0.589
			c-0.207-0.892-0.971-1.623-2.021-1.623c-1.449,0-2.308,1.272-2.308,2.976c0,1.56,0.764,2.849,2.276,2.849
			c0.939,0,1.798-0.62,2.053-1.671c0.048-0.191,0.063-0.382,0.063-0.604V28.062z"/>
		<path fill="#FFFFFF" d="M474.45,28.715c0,2.849-1.973,4.09-3.835,4.09c-2.084,0-3.692-1.527-3.692-3.963
			c0-2.578,1.687-4.09,3.819-4.09C472.955,24.752,474.45,26.359,474.45,28.715z M468.339,28.794c0,1.688,0.971,2.961,2.34,2.961
			c1.337,0,2.339-1.258,2.339-2.992c0-1.305-0.652-2.96-2.308-2.96S468.339,27.33,468.339,28.794z"/>
		<path fill="#FFFFFF" d="M476.247,24.927l1.019,3.915c0.223,0.859,0.43,1.655,0.573,2.451h0.047
			c0.175-0.779,0.43-1.607,0.685-2.435l1.257-3.932h1.178l1.193,3.852c0.287,0.923,0.509,1.735,0.685,2.515h0.048
			c0.127-0.779,0.334-1.592,0.588-2.499l1.098-3.867h1.385l-2.483,7.703h-1.273l-1.178-3.677c-0.271-0.859-0.493-1.623-0.685-2.53
			h-0.032c-0.191,0.923-0.43,1.719-0.7,2.547l-1.241,3.66h-1.273l-2.323-7.703H476.247z"/>
		<path fill="#FFFFFF" d="M487.039,31.197c0.414,0.271,1.146,0.558,1.846,0.558c1.019,0,1.496-0.51,1.496-1.146
			c0-0.668-0.398-1.034-1.433-1.416c-1.384-0.493-2.037-1.258-2.037-2.181c0-1.241,1.003-2.26,2.658-2.26
			c0.78,0,1.464,0.223,1.894,0.478l-0.35,1.019c-0.302-0.191-0.859-0.445-1.576-0.445c-0.827,0-1.289,0.478-1.289,1.05
			c0,0.637,0.462,0.923,1.464,1.306c1.337,0.509,2.021,1.178,2.021,2.323c0,1.353-1.05,2.308-2.88,2.308
			c-0.844,0-1.624-0.207-2.165-0.525L487.039,31.197z"/>
		<path fill="#FFFFFF" d="M496.761,30.943c0.621,0.382,1.528,0.7,2.483,0.7c1.416,0,2.244-0.748,2.244-1.831
			c0-1.002-0.573-1.575-2.021-2.132c-1.75-0.621-2.833-1.528-2.833-3.04c0-1.671,1.385-2.912,3.47-2.912
			c1.098,0,1.894,0.254,2.371,0.524l-0.382,1.131c-0.35-0.191-1.066-0.51-2.037-0.51c-1.464,0-2.021,0.875-2.021,1.607
			c0,1.003,0.653,1.496,2.133,2.069c1.814,0.7,2.737,1.575,2.737,3.15c0,1.655-1.226,3.088-3.756,3.088
			c-1.035,0-2.165-0.303-2.737-0.685L496.761,30.943z"/>
		<path fill="#FFFFFF" d="M506.003,22.715v2.212h2.005v1.066h-2.005v4.154c0,0.955,0.271,1.496,1.05,1.496
			c0.366,0,0.637-0.048,0.812-0.096l0.063,1.05c-0.271,0.111-0.7,0.191-1.241,0.191c-0.653,0-1.178-0.207-1.512-0.589
			c-0.397-0.414-0.541-1.098-0.541-2.005v-4.202h-1.193v-1.066h1.193v-1.846L506.003,22.715z"/>
		<path fill="#FFFFFF" d="M516.263,28.715c0,2.849-1.973,4.09-3.835,4.09c-2.084,0-3.692-1.527-3.692-3.963
			c0-2.578,1.687-4.09,3.819-4.09C514.767,24.752,516.263,26.359,516.263,28.715z M510.151,28.794c0,1.688,0.971,2.961,2.34,2.961
			c1.337,0,2.339-1.258,2.339-2.992c0-1.305-0.652-2.96-2.308-2.96S510.151,27.33,510.151,28.794z"/>
		<path fill="#FFFFFF" d="M517.583,27.33c0-0.907-0.016-1.687-0.063-2.403h1.226l0.047,1.513h0.064
			c0.35-1.035,1.193-1.688,2.132-1.688c0.159,0,0.271,0.016,0.398,0.048v1.321c-0.143-0.032-0.286-0.048-0.478-0.048
			c-0.986,0-1.687,0.748-1.878,1.798c-0.032,0.191-0.063,0.414-0.063,0.652v4.106h-1.385V27.33z"/>
		<path fill="#FFFFFF" d="M523.37,29.033c0.032,1.894,1.242,2.674,2.642,2.674c1.002,0,1.607-0.175,2.133-0.398l0.238,1.003
			c-0.493,0.223-1.336,0.478-2.562,0.478c-2.372,0-3.788-1.56-3.788-3.883c0-2.324,1.369-4.154,3.612-4.154
			c2.515,0,3.183,2.212,3.183,3.629c0,0.286-0.032,0.509-0.048,0.652H523.37z M527.476,28.03c0.016-0.891-0.366-2.275-1.942-2.275
			c-1.417,0-2.037,1.305-2.148,2.275H527.476z"/>
	</g>
	<rect x="394" fill="#37B34A" width="146" height="38"/>
	<path fill="#FFFFFF" d="M413.132,7.181c0.047,0.215,0.075,0.474,0.08,0.779c-1.093,0.472-1.514,0.811-1.495,2.43v0.991
		l-0.749,0.151v-1.149C410.968,7.997,411.881,7.621,413.132,7.181 M415.309,6.67c0.049,0.231,0.089,0.483,0.115,0.753
		c1.958-0.28,1.919,0.527,1.919,2.211v0.624l0.741-0.152V9.634C418.084,7.018,417.676,6.316,415.309,6.67 M407.596,12.207V8.766
		c-0.024-2.134,1.077-2.786,3.111-3.263c3.062-0.719,3.257,1.256,3.257,2.513v2.916l0.75-0.151V8.079
		c-0.008-2.378-0.749-4.158-4.156-3.385c-1.836,0.416-3.709,0.885-3.709,4v3.661L407.596,12.207z M416.568,21.253h-5.764v-4.169
		l5.764-0.846V21.253z M416.568,27.146l-5.764-0.842v-4.475h5.764V27.146z M410.23,21.253h-4.572v-3.491l4.572-0.645V21.253z
		 M410.23,26.268l-4.572-0.644v-3.795h4.572V26.268z M421.832,10.263l-20.604,4.12v14.986l20.604,4.119l4.119-1.498V11.762
		L421.832,10.263z"/>
	<path fill="#FFFFFF" d="M439.928,10.819c0,0.769-0.168,1.445-0.504,2.031c-0.336,0.586-0.814,1.038-1.434,1.354
		c-0.619,0.317-1.328,0.475-2.126,0.475h-1.991V7.148h2.08C438.603,7.148,439.928,8.372,439.928,10.819z M439.004,10.842
		c0-1.93-1.024-2.895-3.073-2.895h-1.176v5.936h1.118c0.995,0,1.765-0.266,2.312-0.797C438.73,12.557,439.004,11.808,439.004,10.842
		z M446.184,11.97c0,0.854-0.243,1.542-0.728,2.062c-0.485,0.52-1.136,0.78-1.951,0.78c-0.795,0-1.43-0.253-1.903-0.761
		c-0.475-0.505-0.712-1.171-0.712-1.998c0-0.889,0.244-1.592,0.73-2.107c0.486-0.517,1.157-0.774,2.011-0.774
		c0.798,0,1.423,0.248,1.875,0.748C445.958,10.418,446.184,11.103,446.184,11.97z M445.301,12.003c0-0.676-0.15-1.194-0.449-1.557
		c-0.299-0.36-0.727-0.54-1.283-0.54c-0.554,0-0.992,0.185-1.314,0.554c-0.322,0.37-0.483,0.891-0.483,1.562
		c0,0.646,0.163,1.147,0.486,1.51c0.324,0.364,0.761,0.545,1.311,0.545c0.559,0,0.988-0.18,1.286-0.536
		C445.152,13.185,445.301,12.672,445.301,12.003z M454.292,9.302l-1.613,5.378h-0.892l-1.109-3.85
		c-0.039-0.132-0.066-0.297-0.083-0.494h-0.021c-0.01,0.123-0.047,0.285-0.11,0.483l-1.203,3.86h-0.861l-1.623-5.378h0.903
		l1.108,4.044c0.035,0.142,0.06,0.302,0.074,0.483h0.042c0.007-0.132,0.04-0.298,0.1-0.492l1.233-4.035h0.789l1.118,4.055
		c0.035,0.137,0.06,0.298,0.074,0.483h0.042c0.007-0.167,0.035-0.328,0.085-0.483l1.097-4.055H454.292z M459.759,14.68h-0.861
		v-3.066c0-1.138-0.417-1.707-1.25-1.707c-0.424,0-0.778,0.161-1.064,0.48s-0.428,0.729-0.428,1.227v3.066h-0.861V9.302h0.861v0.893
		h0.021c0.402-0.682,0.991-1.022,1.765-1.022c0.591,0,1.042,0.192,1.352,0.576c0.31,0.386,0.465,0.932,0.465,1.639V14.68z
		 M462.244,14.68h-0.862V6.719h0.862V14.68z M468.872,11.97c0,0.854-0.243,1.542-0.728,2.062c-0.485,0.52-1.136,0.78-1.951,0.78
		c-0.795,0-1.43-0.253-1.903-0.761c-0.475-0.505-0.712-1.171-0.712-1.998c0-0.889,0.243-1.592,0.73-2.107
		c0.487-0.517,1.157-0.774,2.011-0.774c0.798,0,1.424,0.248,1.875,0.748C468.646,10.418,468.872,11.103,468.872,11.97z
		 M467.989,12.003c0-0.676-0.15-1.194-0.448-1.557c-0.299-0.36-0.728-0.54-1.284-0.54c-0.553,0-0.992,0.185-1.313,0.554
		c-0.322,0.37-0.483,0.891-0.483,1.562c0,0.646,0.162,1.147,0.485,1.51c0.324,0.364,0.761,0.545,1.311,0.545
		c0.56,0,0.989-0.18,1.286-0.536C467.84,13.185,467.989,12.672,467.989,12.003z M474.014,14.68h-0.862v-0.84h-0.021
		c-0.375,0.648-0.926,0.973-1.655,0.973c-0.518,0-0.932-0.141-1.244-0.424c-0.312-0.281-0.468-0.661-0.468-1.137
		c0-1.001,0.592-1.585,1.774-1.755l1.613-0.226c0-0.909-0.369-1.365-1.108-1.365c-0.647,0-1.233,0.219-1.754,0.656V9.681
		c0.158-0.12,0.427-0.234,0.809-0.345c0.381-0.11,0.721-0.164,1.019-0.164c1.264,0,1.896,0.67,1.896,2.012V14.68z M473.152,11.961
		l-1.303,0.184c-0.444,0.062-0.756,0.168-0.934,0.316c-0.179,0.149-0.268,0.391-0.268,0.724c0,0.268,0.096,0.485,0.289,0.647
		c0.192,0.163,0.439,0.245,0.741,0.245c0.427,0,0.78-0.15,1.058-0.452c0.278-0.301,0.417-0.678,0.417-1.13V11.961z M480.185,14.68
		h-0.861v-0.913h-0.021c-0.399,0.696-1.016,1.046-1.849,1.046c-0.679,0-1.22-0.246-1.623-0.732
		c-0.403-0.489-0.604-1.143-0.604-1.958c0-0.89,0.224-1.602,0.67-2.143c0.446-0.538,1.044-0.808,1.794-0.808
		c0.735,0,1.272,0.29,1.612,0.87h0.021V6.719h0.861V14.68z M479.323,12.249v-0.794c0-0.444-0.147-0.813-0.444-1.107
		c-0.296-0.294-0.655-0.441-1.079-0.441c-0.518,0-0.93,0.192-1.234,0.576c-0.304,0.382-0.457,0.914-0.457,1.594
		c0,0.615,0.144,1.104,0.431,1.462c0.287,0.359,0.673,0.539,1.16,0.539c0.473,0,0.862-0.173,1.166-0.515
		C479.171,13.219,479.323,12.782,479.323,12.249z M487.091,7.476c-0.168-0.096-0.359-0.144-0.573-0.144
		c-0.603,0-0.904,0.381-0.904,1.142v0.828h1.26v0.731h-1.26v4.646h-0.861v-4.646h-0.914V9.302h0.914V8.431
		c0-0.545,0.161-0.988,0.483-1.324c0.322-0.335,0.731-0.504,1.229-0.504c0.262,0,0.47,0.031,0.625,0.096V7.476z M490.604,10.175
		c-0.154-0.116-0.373-0.174-0.657-0.174c-0.381,0-0.691,0.18-0.929,0.538s-0.357,0.826-0.357,1.399v2.741H487.8V9.302h0.861v1.108
		h0.021c0.119-0.371,0.303-0.665,0.551-0.88c0.249-0.215,0.535-0.322,0.856-0.322c0.224,0,0.396,0.024,0.515,0.073V10.175z
		 M496.289,11.97c0,0.854-0.243,1.542-0.728,2.062c-0.485,0.52-1.135,0.78-1.95,0.78c-0.796,0-1.43-0.253-1.904-0.761
		c-0.474-0.505-0.712-1.171-0.712-1.998c0-0.889,0.243-1.592,0.73-2.107c0.487-0.517,1.158-0.774,2.012-0.774
		c0.798,0,1.423,0.248,1.875,0.748C496.063,10.418,496.289,11.103,496.289,11.97z M495.407,12.003c0-0.676-0.15-1.194-0.449-1.557
		c-0.299-0.36-0.728-0.54-1.284-0.54c-0.553,0-0.991,0.185-1.313,0.554c-0.322,0.37-0.483,0.891-0.483,1.562
		c0,0.646,0.162,1.147,0.486,1.51c0.323,0.364,0.761,0.545,1.31,0.545c0.56,0,0.989-0.18,1.287-0.536
		C495.258,13.185,495.407,12.672,495.407,12.003z M505.26,14.68h-0.862v-3.087c0-0.603-0.092-1.035-0.275-1.295
		c-0.184-0.26-0.493-0.392-0.927-0.392c-0.367,0-0.68,0.169-0.938,0.504c-0.257,0.336-0.386,0.738-0.386,1.203v3.066h-0.861v-3.193
		c0-1.053-0.408-1.58-1.224-1.58c-0.378,0-0.69,0.159-0.936,0.475c-0.245,0.318-0.367,0.729-0.367,1.232v3.066h-0.862V9.302h0.862
		v0.851h0.021c0.381-0.654,0.936-0.98,1.665-0.98c0.35,0,0.665,0.097,0.945,0.294c0.28,0.196,0.474,0.47,0.583,0.824
		c0.398-0.746,0.993-1.118,1.784-1.118c1.185,0,1.776,0.73,1.776,2.195V14.68z"/>
	<path fill="#FFFFFF" d="M447.653,19.516l-3.169,11.218h-1.54l-2.309-8.205c-0.089-0.309-0.146-0.688-0.171-1.135h-0.032
		c-0.041,0.385-0.112,0.759-0.21,1.118l-2.324,8.222h-1.525l-3.277-11.218h1.438l2.387,8.604c0.099,0.381,0.163,0.757,0.195,1.127
		h0.032c0.024-0.319,0.104-0.692,0.235-1.127l2.487-8.604h1.267l2.37,8.668c0.089,0.323,0.152,0.669,0.188,1.04h0.031
		c0.026-0.271,0.097-0.629,0.212-1.072l2.292-8.636H447.653z M450.199,20.089c0,0.239-0.083,0.439-0.25,0.598
		c-0.167,0.158-0.364,0.238-0.594,0.238c-0.235,0-0.432-0.077-0.594-0.23c-0.163-0.154-0.243-0.356-0.243-0.605
		c0-0.224,0.08-0.419,0.239-0.585c0.158-0.162,0.358-0.246,0.598-0.246c0.24,0,0.44,0.082,0.603,0.243
		C450.118,19.662,450.199,19.858,450.199,20.089z M449.98,30.733h-1.283v-8.01h1.283V30.733z M458.571,30.733h-1.284v-4.568
		c0-1.694-0.62-2.544-1.86-2.544c-0.631,0-1.159,0.24-1.584,0.717c-0.426,0.477-0.639,1.086-0.639,1.827v4.568h-1.282v-8.01h1.282
		v1.329h0.032c0.6-1.017,1.475-1.524,2.629-1.524c0.881,0,1.552,0.286,2.013,0.86c0.462,0.572,0.693,1.386,0.693,2.439V30.733z
		 M467.472,30.733h-1.283v-1.361h-0.031c-0.595,1.039-1.512,1.558-2.753,1.558c-1.012,0-1.818-0.365-2.417-1.092
		c-0.599-0.728-0.899-1.698-0.899-2.914c0-1.324,0.332-2.388,0.997-3.192c0.665-0.802,1.556-1.203,2.671-1.203
		c1.094,0,1.896,0.432,2.401,1.298h0.031v-4.953h1.283V30.733z M466.189,27.11V25.93c0-0.662-0.22-1.211-0.661-1.65
		c-0.441-0.438-0.976-0.658-1.607-0.658c-0.771,0-1.384,0.287-1.837,0.857c-0.454,0.571-0.683,1.363-0.683,2.374
		c0,0.919,0.215,1.644,0.643,2.18c0.427,0.534,1.003,0.801,1.729,0.801c0.703,0,1.282-0.255,1.735-0.767
		C465.964,28.556,466.189,27.904,466.189,27.11z M476.945,26.697c0,1.271-0.361,2.296-1.085,3.07
		c-0.722,0.774-1.69,1.162-2.905,1.162c-1.183,0-2.129-0.377-2.835-1.131c-0.707-0.755-1.06-1.746-1.06-2.978
		c0-1.323,0.362-2.371,1.087-3.14c0.725-0.769,1.723-1.153,2.996-1.153c1.188,0,2.118,0.371,2.792,1.114
		C476.607,24.386,476.945,25.402,476.945,26.697z M475.63,26.743c0-1.007-0.224-1.777-0.669-2.314
		c-0.446-0.538-1.084-0.808-1.913-0.808c-0.824,0-1.477,0.276-1.955,0.826c-0.479,0.55-0.72,1.325-0.72,2.327
		c0,0.961,0.241,1.708,0.724,2.249c0.481,0.539,1.132,0.81,1.951,0.81c0.834,0,1.473-0.266,1.916-0.796
		C475.408,28.504,475.63,27.739,475.63,26.743z M488.62,22.724l-2.401,8.01h-1.33l-1.65-5.734c-0.057-0.197-0.099-0.443-0.125-0.734
		h-0.032c-0.016,0.183-0.069,0.422-0.164,0.72l-1.792,5.749h-1.283l-2.417-8.01h1.346l1.649,6.021c0.052,0.21,0.089,0.45,0.11,0.721
		h0.062c0.009-0.198,0.06-0.442,0.148-0.735l1.839-6.007h1.174l1.666,6.038c0.051,0.202,0.088,0.443,0.109,0.721h0.062
		c0.012-0.252,0.053-0.491,0.126-0.721l1.635-6.038H488.62z M494.086,28.59c0,0.693-0.267,1.257-0.802,1.689
		c-0.534,0.432-1.245,0.65-2.13,0.65c-0.756,0-1.419-0.163-1.987-0.485v-1.378c0.63,0.512,1.325,0.767,2.081,0.767
		c1.016,0,1.526-0.372,1.526-1.118c0-0.303-0.099-0.549-0.297-0.739c-0.199-0.19-0.649-0.447-1.354-0.771
		c-0.709-0.303-1.21-0.626-1.501-0.974c-0.293-0.348-0.439-0.808-0.439-1.382c0-0.661,0.266-1.214,0.798-1.658
		c0.532-0.442,1.208-0.663,2.026-0.663c0.631,0,1.201,0.125,1.714,0.376v1.289c-0.522-0.381-1.127-0.572-1.815-0.572
		c-0.423,0-0.762,0.106-1.021,0.314c-0.259,0.208-0.388,0.478-0.388,0.806c0,0.355,0.101,0.626,0.298,0.817
		c0.199,0.189,0.609,0.416,1.229,0.676c0.761,0.324,1.296,0.662,1.603,1.019C493.932,27.606,494.086,28.053,494.086,28.59z"/>
	<path fill="#FFFFFF" d="M505.503,27.902c0,0.944-0.334,1.685-1.001,2.221c-0.667,0.538-1.575,0.808-2.723,0.808
		c-0.417,0-0.888-0.071-1.412-0.209c-0.524-0.138-0.895-0.282-1.114-0.434v-1.557c0.317,0.287,0.736,0.527,1.255,0.719
		c0.519,0.193,1.002,0.291,1.452,0.291c1.439,0,2.158-0.561,2.158-1.683c0-0.469-0.153-0.873-0.461-1.21
		c-0.307-0.334-0.938-0.778-1.893-1.325c-0.923-0.521-1.569-1.016-1.939-1.486c-0.371-0.469-0.556-1.04-0.556-1.713
		c0-0.887,0.331-1.606,0.993-2.162s1.518-0.834,2.566-0.834c1.007,0,1.742,0.134,2.206,0.398v1.472
		c-0.584-0.459-1.343-0.689-2.276-0.689c-0.621,0-1.129,0.156-1.521,0.467c-0.394,0.31-0.592,0.72-0.592,1.232
		c0,0.37,0.059,0.668,0.177,0.892s0.315,0.446,0.594,0.665c0.279,0.219,0.75,0.514,1.412,0.884c0.99,0.553,1.685,1.074,2.081,1.564
		C505.304,26.702,505.503,27.266,505.503,27.902z M510.803,30.656c-0.308,0.171-0.709,0.258-1.205,0.258
		c-1.398,0-2.097-0.788-2.097-2.362v-4.741h-1.377v-1.086h1.377v-1.957l1.283-0.413v2.37h2.018v1.086h-2.018v4.522
		c0,0.536,0.091,0.919,0.273,1.146c0.183,0.227,0.488,0.338,0.916,0.338c0.317,0,0.595-0.084,0.829-0.258V30.656z M519.647,26.698
		c0,1.271-0.361,2.296-1.083,3.07c-0.722,0.773-1.691,1.162-2.907,1.162c-1.184,0-2.129-0.377-2.835-1.132
		c-0.707-0.754-1.06-1.745-1.06-2.977c0-1.324,0.363-2.371,1.088-3.14c0.725-0.77,1.724-1.154,2.996-1.154
		c1.189,0,2.12,0.371,2.793,1.114C519.311,24.386,519.647,25.403,519.647,26.698z M518.333,26.744c0-1.007-0.223-1.778-0.669-2.314
		c-0.446-0.538-1.083-0.808-1.913-0.808c-0.824,0-1.476,0.276-1.955,0.826c-0.48,0.55-0.721,1.325-0.721,2.326
		c0,0.962,0.241,1.71,0.724,2.251c0.482,0.538,1.133,0.809,1.952,0.809c0.833,0,1.474-0.266,1.917-0.797
		C518.111,28.505,518.333,27.739,518.333,26.744z M525.171,24.022c-0.23-0.173-0.556-0.258-0.979-0.258
		c-0.568,0-1.03,0.266-1.384,0.801c-0.355,0.536-0.532,1.23-0.532,2.085v4.084h-1.283v-8.01h1.283v1.649h0.031
		c0.177-0.553,0.451-0.989,0.821-1.311c0.37-0.32,0.795-0.481,1.275-0.481c0.334,0,0.589,0.036,0.767,0.11V24.022z M532.898,27.05
		h-5.656c0.021,0.902,0.259,1.591,0.715,2.068c0.457,0.477,1.089,0.716,1.897,0.716c0.907,0,1.734-0.291,2.479-0.875v1.195
		c-0.699,0.517-1.627,0.776-2.785,0.776c-1.142,0-2.034-0.371-2.675-1.108c-0.642-0.738-0.962-1.758-0.962-3.062
		c0-0.794,0.16-1.517,0.481-2.172c0.32-0.654,0.762-1.161,1.326-1.521c0.563-0.359,1.189-0.539,1.877-0.539
		c1.038,0,1.847,0.338,2.429,1.014c0.582,0.674,0.873,1.62,0.873,2.834V27.05z M531.584,25.961c-0.01-0.74-0.189-1.313-0.536-1.724
		c-0.347-0.409-0.836-0.615-1.467-0.615c-0.594,0-1.104,0.216-1.525,0.643c-0.422,0.429-0.688,0.993-0.798,1.696H531.584z"/>
	<g id="Footer_x5F_480">
	</g>
</g>
<g id="Layer_25">
</g>
<g id="Layer_26">
</g>
</svg>
