<svg id="Layer_1" data-name="Layer 1" xmlns="http://www.w3.org/2000/svg" viewBox="0 0 24 24"><defs><style>.cls-1{fill:#fff;}</style></defs><title>Social_icons_flat</title><path class="cls-1" d="M20.34,7.5A6.52,6.52,0,0,1,18.45,8,3.3,3.3,0,0,0,19.9,6.2a6.59,6.59,0,0,1-2.08.8,3.28,3.28,0,0,0-5.68,2.25,3.2,3.2,0,0,0,.09.75A9.3,9.3,0,0,1,5.45,6.56a3.29,3.29,0,0,0,1,4.38A3.28,3.28,0,0,1,5,10.53v0a3.28,3.28,0,0,0,2.63,3.22,3.21,3.21,0,0,1-.86.11,3.28,3.28,0,0,1-.62-0.06A3.28,3.28,0,0,0,9.2,16.13a6.59,6.59,0,0,1-4.08,1.41,6.83,6.83,0,0,1-.78,0A9.33,9.33,0,0,0,18.71,9.63c0-.14,0-0.29,0-0.43A6.66,6.66,0,0,0,20.34,7.5Z"/></svg>