<?xml version="1.0" encoding="utf-8"?>
<!-- Generator: Adobe Illustrator 21.1.0, SVG Export Plug-In . SVG Version: 6.00 Build 0)  -->
<svg version="1.1" id="Layer_1" xmlns="http://www.w3.org/2000/svg" xmlns:xlink="http://www.w3.org/1999/xlink" x="0px" y="0px"
	 viewBox="0 0 24 24" style="enable-background:new 0 0 24 24;" xml:space="preserve">
<style type="text/css">
	.st0{fill:#FFFFFF;}
</style>
<title>Social_icons_flat</title>
<path class="st0" d="M9.4,24c0,0,0-3.5,0-4.2c0-0.7-0.2-1.1-1.6-2.5c-0.4-0.6-1.2-1.9-1.1-2.8c0.1-0.7,0.9-1.5,1.1-2.2
	c0-0.7-0.9-2.6-1-3c-0.3-1.2-1-3.9-1-4.1c0-1.6,1.3-1.3,1.6-0.7c0.3,0.7,0.6,1.9,0.9,3C8.5,8.3,9.1,9.4,9.4,10
	c0.2,0.4,0.3,0.3,0.5,0c0.2-0.3,0.4-0.9,1.2-0.9c0.7,0,1,0.8,1,1.1c0,0.3,0.4,0.3,0.5,0c0.1-0.2,0.3-1,1-0.9c0.8,0.1,0.9,0.7,1,1.1
	c0.1,0.5,0.5,0,0.5,0s0.3-0.6,0.6-1.2c0.3-0.6,0.4-1.7,0.9-3.1c0.5-1.5,1.6-0.8,1.6,0.2c0,0.8-1.1,5.5-1.2,5.9
	c-0.1,0.4-0.6,3.7-0.7,4.3c-0.1,0.6-0.7,1.5-1.1,2.9l0,4.4L9.4,24L9.4,24z"/>
</svg>
