<svg id="Layer_1" data-name="Layer 1" xmlns="http://www.w3.org/2000/svg" width="21.03" height="12" viewBox="0 0 21.03 12"><defs><style>.cls-1{fill:#fff;fill-rule:evenodd;}</style></defs><title>Social_icons_flat_VK_no_bgr_24x24</title><path class="cls-1" d="M11.77,17.95H13a1.06,1.06,0,0,0,.57-.25.92.92,0,0,0,.17-.55s0-1.69.76-1.94,1.76,1.63,2.81,2.35a2,2,0,0,0,1.4.43l2.81,0s1.47-.09.77-1.25a9.39,9.39,0,0,0-2.09-2.42c-1.76-1.63-1.53-1.37.6-4.2,1.29-1.72,1.81-2.77,1.65-3.22s-1.1-.32-1.1-.32l-3.16,0a.72.72,0,0,0-.41.07.88.88,0,0,0-.28.34,18.35,18.35,0,0,1-1.17,2.47c-1.41,2.39-2,2.52-2.2,2.37-.54-.35-.4-1.39-.4-2.13,0-2.32.35-3.28-.68-3.53A5.41,5.41,0,0,0,11.6,6,6.82,6.82,0,0,0,9,6.27c-.36.18-.64.57-.47.59a1.42,1.42,0,0,1,.93.47,3.05,3.05,0,0,1,.31,1.43s.19,2.73-.43,3.07c-.43.23-1-.24-2.27-2.41A20.18,20.18,0,0,1,5.92,7.08a.94.94,0,0,0-.26-.35,1.31,1.31,0,0,0-.49-.2l-3,0s-.45,0-.62.21,0,.54,0,.54,2.35,5.5,5,8.28a7.22,7.22,0,0,0,5.22,2.38Z" transform="translate(-1.48 -6)"/></svg>