<svg id="Layer_1" data-name="Layer 1" xmlns="http://www.w3.org/2000/svg" viewBox="0 0 24 24"><defs><style>.cls-1{fill:#fff;}.cls-2{fill:#d2e5f1;}.cls-3{fill:#b5cfe4;}</style></defs><title>Social_icons_flat</title><path class="cls-1" d="M19,6.46l-2.37,12a0.88,0.88,0,0,1-1.25.43L9.9,14.65l-2-1L4.56,12.56A0.88,0.88,0,0,1,4,12a0.79,0.79,0,0,1,.58-0.61L17.9,6.14S19,5.66,19,6.46Z"/><path class="cls-2" d="M9.48,18.29a0.84,0.84,0,0,1-.36-0.65c-0.2-.63-1.21-3.95-1.21-3.95l8-5.11s0.47-.28.45,0c0,0,.08.05-0.17,0.28L9.92,14.55"/><path class="cls-3" d="M12,16.26l-2.17,2a0.38,0.38,0,0,1-.35,0L9.9,14.62"/></svg>