<?xml version="1.0" encoding="utf-8"?>
<!-- Generator: Adobe Illustrator 21.1.0, SVG Export Plug-In . SVG Version: 6.00 Build 0)  -->
<svg version="1.1" id="Layer_1" xmlns="http://www.w3.org/2000/svg" xmlns:xlink="http://www.w3.org/1999/xlink" x="0px" y="0px"
	 viewBox="0 0 24 24" style="enable-background:new 0 0 24 24;" xml:space="preserve">
<style type="text/css">
	.st0{fill:#FFFFFF;}
</style>
<title>Social_icons_flat</title>
<path class="st0" d="M2.2,12.9C2.2,12.9,2.2,12.9,2.2,12.9L2,14l0.1,1.1c0,0,0,0.1,0.1,0.1c0,0,0.1,0,0.1-0.1l0,0v0c0,0,0,0,0,0
	L2.5,14L2.2,12.9C2.3,12.9,2.3,12.9,2.2,12.9z M3,12.2C3,12.2,3,12.2,3,12.2c-0.1-0.1-0.2,0-0.2,0L2.7,14l0.2,1.8c0,0,0,0.1,0.1,0.1
	c0,0,0.1,0,0.1-0.1L3.3,14L3,12.2z M6.1,10.6c-0.1,0-0.1,0.1-0.2,0.1L5.8,14L6,16.2c0,0.1,0.1,0.1,0.2,0.1c0.1,0,0.1-0.1,0.1-0.1
	l0,0L6.5,14l-0.2-3.3C6.3,10.7,6.2,10.6,6.1,10.6z M4.5,11.7c-0.1,0-0.1,0-0.1,0.1L4.2,14l0.2,2.1c0,0.1,0.1,0.1,0.1,0.1
	c0.1,0,0.1,0,0.1-0.1L4.9,14l-0.2-2.2C4.7,11.8,4.6,11.7,4.5,11.7z M7.8,16.3c0.1,0,0.2-0.1,0.2-0.2L8.1,14L8,9.6
	c0-0.1-0.1-0.2-0.2-0.2c-0.1,0-0.2,0.1-0.2,0.2L7.5,14l0.1,2.1C7.6,16.2,7.7,16.3,7.8,16.3z M11.1,16.3c0.1,0,0.3-0.1,0.3-0.3v0v0
	l0.1-2L11.4,9c0-0.1-0.1-0.3-0.3-0.3c-0.1,0-0.3,0.1-0.3,0.3L10.8,14c0,0,0.1,2,0.1,2C10.9,16.2,11,16.3,11.1,16.3z M9.4,16.3
	c0.1,0,0.2-0.1,0.2-0.2v0L9.8,14L9.7,9.6c0-0.1-0.1-0.2-0.2-0.2S9.2,9.5,9.2,9.6L9.1,14l0.1,2.1C9.2,16.2,9.3,16.3,9.4,16.3z
	 M5.3,16.3c0.1,0,0.1-0.1,0.1-0.1L5.7,14l-0.2-2c0-0.1-0.1-0.1-0.1-0.1S5.2,11.9,5.2,12L5,14l0.2,2.1C5.2,16.3,5.3,16.3,5.3,16.3z
	 M3.7,16.2c0.1,0,0.1,0,0.1-0.1L4.1,14l-0.2-2.1c0-0.1,0-0.1-0.1-0.1c-0.1,0-0.1,0-0.1,0.1L3.5,14l0.2,2.1
	C3.7,16.2,3.7,16.2,3.7,16.2z M10.3,9.5c-0.1,0-0.2,0.1-0.2,0.2L9.9,14l0.1,2.1c0,0.1,0.1,0.2,0.2,0.2c0.1,0,0.2-0.1,0.2-0.2v0
	l0.1-2.1l-0.1-4.3C10.5,9.6,10.4,9.5,10.3,9.5z M7,16.3c0.1,0,0.2-0.1,0.2-0.2L7.3,14L7.1,10C7.1,9.9,7,9.8,7,9.8S6.8,9.9,6.8,10
	L6.6,14l0.1,2.1C6.8,16.3,6.9,16.3,7,16.3z M8.8,16.1L8.8,16.1L8.9,14L8.8,9.5c0-0.1-0.1-0.2-0.2-0.2c-0.1,0-0.2,0.1-0.2,0.2L8.3,14
	l0.1,2.1c0,0.1,0.1,0.2,0.2,0.2C8.7,16.3,8.8,16.2,8.8,16.1L8.8,16.1z M19.5,11.4c-0.3,0-0.7,0.1-1,0.2c-0.2-2.2-2.1-4-4.3-4
	c-0.6,0-1.1,0.1-1.6,0.3c-0.2,0.1-0.2,0.1-0.2,0.3V16c0,0.1,0.1,0.3,0.3,0.3c0,0,6.8,0,6.8,0c1.4,0,2.5-1.1,2.5-2.5
	C22,12.5,20.9,11.4,19.5,11.4z M11.9,8.2c-0.1,0-0.3,0.1-0.3,0.3L11.6,14l0.1,2c0,0.1,0.1,0.3,0.3,0.3c0.1,0,0.3-0.1,0.3-0.3v0
	l0.1-2l-0.1-5.5C12.2,8.4,12.1,8.2,11.9,8.2z"/>
</svg>
