<svg id="Layer_1" data-name="Layer 1" xmlns="http://www.w3.org/2000/svg" viewBox="0 0 24 24"><defs><style>.cls-1{fill:#fff;}</style></defs><title>Social_icons_flat</title><g id="Lozenge"><path class="cls-1" d="M19.84,9.37a3.34,3.34,0,0,0-.64-1.55,2.32,2.32,0,0,0-1.6-.66C15.36,7,12,7,12,7h0s-3.36,0-5.6.16a2.32,2.32,0,0,0-1.6.66,3.32,3.32,0,0,0-.64,1.55A23.41,23.41,0,0,0,4,11.9v1.19a23.39,23.39,0,0,0,.16,2.53,3.33,3.33,0,0,0,.64,1.55,2.74,2.74,0,0,0,1.76.67C7.84,18,12,18,12,18s3.36,0,5.6-.16a2.33,2.33,0,0,0,1.6-.66,3.34,3.34,0,0,0,.64-1.55A23.11,23.11,0,0,0,20,13.09V11.9A23.13,23.13,0,0,0,19.84,9.37Zm-9.49,5.16V10.13l4.32,2.21Z"/></g></svg>