<?xml version="1.0" encoding="utf-8"?>
<!-- Generator: Adobe Illustrator 16.0.4, SVG Export Plug-In . SVG Version: 6.00 Build 0)  -->
<!DOCTYPE svg PUBLIC "-//W3C//DTD SVG 1.0//EN" "http://www.w3.org/TR/2001/REC-SVG-20010904/DTD/svg10.dtd">
<svg version="1.0" id="Layer_1" xmlns="http://www.w3.org/2000/svg" xmlns:xlink="http://www.w3.org/1999/xlink" x="0px" y="0px"
	 width="12px" height="24px" viewBox="0 0 12 24" enable-background="new 0 0 12 24" xml:space="preserve">
<symbol  id="info_x5F_pict" viewBox="0 0 12 12">
	<g>
		<path fill="#ADADAD" d="M11,11V1H1v10H11 M12,12H0V0h12V12L12,12z"/>
	</g>
	<polygon fill="#ADADAD" points="7,2 5,2 5,7 7,7 	"/>
	<path fill="#ADADAD" d="M7,8.917c0-0.552-0.447-1-1-1s-1,0.448-1,1s0.447,1,1,1S7,9.469,7,8.917z"/>
	<polygon display="none" fill="none" points="0,12 12,12 12,0 0,0 	"/>
</symbol>
<g>
	<g>
		<path fill="#034EA9" d="M11,13v10H1V13H11 M12,12H0v12h12V12L12,12z"/>
	</g>
	<rect x="5" y="17" fill="#034EA9" width="2" height="5"/>
	<circle fill="#034EA9" cx="6" cy="15.084" r="1"/>
</g>
<use xlink:href="#info_x5F_pict"  width="12" height="12" transform="matrix(1 0 0 -1 0 12)" overflow="visible"/>
<g>
</g>
<g>
</g>
<g>
</g>
<g>
</g>
<g>
</g>
<g>
</g>
<g>
</g>
<g>
</g>
<g>
</g>
<g>
</g>
<g>
</g>
<g>
</g>
<g>
</g>
<g>
</g>
<g>
</g>
<g>
</g>
<g>
</g>
<g>
</g>
</svg>
