<?xml version="1.0" encoding="utf-8"?><svg width="26.86" height="38" viewBox="0 0 26.86 38" xmlns="http://www.w3.org/2000/svg" xmlns:xlink="http://www.w3.org/1999/xlink"><svg id="gallery_size_28" data-name="Layer 1" viewBox="-2 -2 20 16" width="20" height="16"><defs><style>.acls-1{fill:#515151}.acls-2{fill:#adadad}</style></defs><title>Gallery_icon_28x28</title><path class="acls-1" d="M4 4h12v8H4z"/><path class="acls-1" d="M14 2H2v7h1V2.94h11V2z"/><path class="acls-1" d="M12 0H0v7h1V.94h11V0z"/><path class="acls-2" d="M14 9V8h-1V7h-1v1h-1v2h-1V9H9V8H8v1H7v1H6v1h9V9h-1z"/></svg><svg id="gallery_size_40" data-name="Layer 1" viewBox="-2 -2 26.86 21.14" width="26.86" height="21.14" y="16"><defs><style>.bcls-1{fill:#515151}.bcls-2{fill:#adadad}</style></defs><title>Gallery_icon_40x40</title><path class="bcls-1" d="M5.71 5.71h17.14v11.43H5.71z"/><path class="bcls-1" d="M20 2.86H2.86v10h1.43V4.2H20V2.86z"/><path class="bcls-1" d="M17.14 0H0v10h1.43V1.34h15.71V0z"/><path class="bcls-2" d="M20 12.86v-1.43h-1.43V10h-1.43v1.43h-1.43v2.86h-1.42v-1.43h-1.43v-1.43h-1.43v1.43H10v1.43H8.57v1.42h12.86v-2.85H20z"/></svg></svg>